<svg width="108" height="34" viewBox="0 0 108 34" fill="none" xmlns="http://www.w3.org/2000/svg">
<path d="M60.9316 9.23064C60.9928 9.23064 61.0694 9.23064 61.1306 9.21533C62.1409 9.10817 63.0441 8.28156 63.1971 7.25594C63.3502 6.24564 62.7073 5.40371 61.7276 5.29656C61.6664 5.29656 61.5898 5.28125 61.5286 5.28125C61.4674 5.28125 61.3908 5.28125 61.3296 5.29656C60.3193 5.40371 59.4161 6.23033 59.2631 7.25594C59.1865 7.79171 59.3243 8.26625 59.6151 8.63364C59.9213 9.00102 60.3805 9.23064 60.9316 9.23064Z" fill="#889494"/>
<path d="M107.008 25.671C107.008 22.9769 105.691 20.5123 104.528 18.3386C103.533 16.4864 102.645 14.8025 102.875 13.5473C103.043 12.6442 103.686 12.1237 104.681 12.0625C104.712 12.0625 104.742 12.0472 104.773 12.0472C104.819 12.0318 104.865 12.0012 104.911 11.9706C104.957 11.94 104.987 11.8941 105.003 11.8482C105.003 11.8328 105.018 11.8328 105.018 11.8175L105.508 10.547C105.554 10.4092 105.569 10.3174 105.523 10.2255C105.492 10.1643 105.446 10.1031 105.37 10.0418C105.278 9.96531 105.125 9.90408 104.926 9.84285C104.65 9.751 104.298 9.68977 103.977 9.68977C102.538 9.68977 100.778 10.1643 99.2468 13.9759C99.1856 14.129 96.2312 21.7829 96.1393 22.0278C95.772 22.9309 94.9913 24.0178 93.338 24.0178C92.6186 24.0178 92.0369 23.7422 91.7154 23.283C91.6542 23.1912 91.6083 23.0993 91.5623 23.0075C91.4399 22.7013 91.394 22.3339 91.4705 21.9359C91.5011 21.7982 91.5317 21.6451 91.5777 21.492C91.6542 21.2318 91.7613 20.9409 91.8838 20.6501C93.0166 17.7569 97.0425 7.45485 98.2824 4.28615C98.4355 3.88815 98.2212 3.56669 97.7926 3.56669H96.369C96.2159 3.56669 96.0475 3.61262 95.9097 3.68915C95.6495 3.81162 95.4352 4.04123 95.328 4.28615C94.777 5.67916 93.9963 7.69977 93.1697 9.82754C92.5267 11.4655 91.8685 13.1646 91.2562 14.7107C91.0725 14.4045 90.8582 14.1137 90.6286 13.8382C90.3837 13.5626 90.1234 13.3024 89.8479 13.0728C88.6539 12.0931 87.1384 11.5573 85.4699 11.5573C83.4186 11.5573 81.444 12.3839 79.8979 13.731C79.8367 13.7769 79.7907 13.8382 79.7295 13.8841C79.6836 13.9147 79.653 13.9606 79.607 13.9912C78.5967 14.9403 77.8007 16.119 77.3109 17.4202C77.3109 17.4355 77.2956 17.4508 77.2956 17.4814C77.2343 17.6498 77.1884 17.8182 77.1272 18.0019C77.0353 18.3233 76.9588 18.6448 76.9129 18.9815C76.867 19.2877 76.8363 19.5939 76.821 19.9C76.7904 20.7879 76.9282 21.6604 77.2037 22.4564C77.066 22.686 76.8823 22.9003 76.6833 23.0993C76.1169 23.6351 75.3668 23.9872 74.5861 24.0484C74.5096 24.0484 74.4483 24.0484 74.3718 24.0484C74.0656 24.0484 73.7748 23.9872 73.5146 23.8953C73.1931 23.7729 72.9176 23.5739 72.7339 23.3136C72.3818 22.8085 72.3818 22.0737 72.7033 21.2318C72.7798 21.0175 73.2696 19.7163 73.7136 18.5529C74.0503 17.6498 74.3565 16.8079 74.4177 16.6395C74.4483 16.5476 74.5096 16.4099 74.5555 16.2415C74.632 15.92 74.678 15.4761 74.4636 15.0168C74.3718 14.8332 74.2646 14.6801 74.1422 14.5423C73.8973 14.2821 73.5758 14.129 73.2696 14.0065C73.1472 13.9606 73.0247 13.9147 72.9023 13.8841C72.688 13.8229 72.4583 13.731 72.1981 13.6238C72.1828 13.6238 72.1828 13.6085 72.1675 13.6085C71.7389 13.4248 69.6723 12.4605 69.6723 10.6235C69.6723 10.5776 69.6723 10.5317 69.6723 10.5011C69.6723 10.4858 69.6723 10.4705 69.6723 10.4552C69.6723 10.4398 69.6723 10.4092 69.6723 10.3939C69.6417 10.1184 69.5499 9.95 69.4274 9.85816C69.4121 9.85816 69.4121 9.84285 69.3968 9.84285C69.3968 9.84285 69.3968 9.84285 69.3815 9.84285C69.3662 9.82754 69.3509 9.82754 69.3356 9.81223C69.3356 9.81223 69.3356 9.81223 69.3203 9.81223C69.3203 9.81223 69.3203 9.81223 69.305 9.81223C69.2896 9.81223 69.2896 9.79693 69.2743 9.79693C69.1978 9.76631 69.1213 9.751 69.0294 9.751H67.6211C67.3303 9.751 67.0088 9.90408 66.7945 10.1337C66.7026 10.2255 66.6261 10.348 66.5802 10.4705C66.274 11.2512 65.9066 12.1849 65.524 13.1799C64.1769 16.6395 62.5696 20.7879 62.1103 21.9665C62.095 22.0125 62.0797 22.0584 62.0644 22.1043C61.697 23.0075 60.9163 24.0943 59.2478 24.0943C58.5283 24.0943 57.9313 23.8188 57.6252 23.3595C57.4415 23.084 57.3496 22.7319 57.365 22.3186C57.3803 21.9972 57.4568 21.6451 57.5946 21.2777C57.8854 20.5123 58.513 18.9203 59.1713 17.2365C59.7989 15.6292 60.4571 13.9147 60.9163 12.7513C61.0694 12.3533 60.8551 12.0318 60.4265 12.0318H59.0029H58.8651C58.7733 12.0318 58.6661 12.0472 58.5589 12.0778C58.5436 12.0778 58.5436 12.0778 58.5283 12.0778C58.1916 12.1696 57.8548 12.3992 57.6558 12.6442C56.921 13.532 55.972 14.2515 54.931 14.7719C53.8901 15.2924 52.7726 15.6292 51.7011 15.7516C51.548 15.3536 51.349 14.9556 51.1041 14.5882C51.0888 14.5729 51.0888 14.5576 51.0735 14.5423C50.9204 14.3127 50.7673 14.0984 50.5836 13.8841C49.3131 12.4145 47.4915 11.6032 45.4249 11.6032C44.3228 11.6032 43.2513 11.8482 42.241 12.2768C42.7461 10.9756 43.2513 9.65916 43.7258 8.41923C44.3075 6.90377 44.8586 5.49546 45.3025 4.33208C45.379 4.14839 45.3637 3.99531 45.3025 3.85754C45.226 3.70446 45.0576 3.61262 44.8279 3.61262H44.8126H43.4043H43.389C43.2206 3.61262 43.0369 3.67385 42.8686 3.76569C42.6696 3.87285 42.5012 4.02592 42.4093 4.20962C42.394 4.25554 42.3634 4.28615 42.3481 4.33208C40.5265 8.97031 37.618 16.4864 36.2403 20.0837C35.8576 21.0634 35.5974 21.7675 35.4903 22.0278C35.1229 22.9309 34.3422 24.0178 32.6889 24.0178C32.5359 24.0178 32.3981 24.0025 32.2756 23.9872C31.7552 23.8953 31.3113 23.6657 31.0663 23.283C31.0204 23.2065 30.9745 23.1299 30.9286 23.0381C30.7908 22.7319 30.7449 22.3492 30.8214 21.9359C30.852 21.7369 30.9592 21.4155 31.0816 21.094C31.25 20.6348 31.4184 20.1909 31.4184 20.1909C31.4184 20.1909 32.0307 18.6295 32.9033 16.3639C32.9951 16.119 33.1023 15.8588 33.2094 15.5832C33.2247 15.5526 33.24 15.522 33.24 15.4914C34.5871 12.0318 36.3934 7.363 37.6946 3.99531C38.215 2.63292 38.6589 1.48485 38.9651 0.719462C39.1182 0.321462 38.9039 0 38.4753 0H37.0516C36.623 0 36.1638 0.321462 36.0107 0.719462C35.8423 1.14808 34.3422 5.03623 32.6583 9.38362C30.4846 14.9862 28.0201 21.3542 27.7599 22.0431C27.6986 22.1809 27.6374 22.3186 27.5609 22.4564C27.3313 22.9003 26.9792 23.3289 26.4893 23.6351C26.0913 23.88 25.5709 24.0331 24.9433 24.0484C24.3616 24.0484 23.8717 23.88 23.5349 23.5585C23.4584 23.482 23.3819 23.4055 23.3053 23.3136C23.0757 22.9615 22.9839 22.5176 23.0757 21.9972V21.9819C23.1523 21.5379 23.7493 19.9765 23.7493 19.9459C24.1319 18.9662 24.5759 17.8029 25.0504 16.5629C26.6271 12.5064 28.5559 7.48546 29.7958 4.31677C29.8264 4.22492 29.8417 4.13308 29.8417 4.04123C29.8264 3.91877 29.7805 3.79631 29.6886 3.71977C29.5968 3.64323 29.4743 3.59731 29.3059 3.59731H27.8823C27.7293 3.59731 27.5609 3.64323 27.4078 3.71977C27.1935 3.82692 27.0098 3.99531 26.9026 4.19431C26.8873 4.22492 26.8567 4.27085 26.8414 4.30146C26.474 5.23523 26.076 6.27616 25.6474 7.37831C25.1882 8.57231 24.6983 9.84285 24.1932 11.1134C22.2338 16.1649 20.2897 21.2318 19.9683 22.0431C19.8611 22.3033 19.7233 22.5635 19.5549 22.8238C19.0957 23.482 18.3609 24.0331 17.1516 24.0331C16.7077 24.0331 16.3097 23.9259 15.9883 23.7422C15.8046 23.6198 15.6362 23.482 15.529 23.2983C15.4525 23.1759 15.3913 23.0534 15.3453 22.9156C15.2535 22.6401 15.2382 22.3186 15.2994 21.9665C15.3759 21.5379 15.8046 20.4205 15.8811 20.2521C15.8811 20.2368 15.8964 20.2215 15.8964 20.2215L18.8202 12.6901C18.9733 12.2921 18.7589 11.9706 18.3303 11.9706H16.9067C16.6465 11.9706 16.3709 12.0931 16.1566 12.2768C16.1413 12.2768 16.1413 12.2921 16.1413 12.2921C16.0189 12.3992 15.927 12.537 15.8811 12.6748L15.5903 13.4402L15.131 14.6342C15.0392 14.4964 14.9473 14.3586 14.8555 14.2208C14.7636 14.0831 14.6565 13.9606 14.5493 13.8382C14.0901 13.3024 13.539 12.8432 12.942 12.4911C11.9164 11.8788 10.7071 11.5573 9.40594 11.5573C6.20664 11.5573 3.17571 13.5779 1.69087 16.4252C1.27756 17.2212 0.986712 18.0784 0.848943 18.9662C0.527481 21.0481 1.06325 23.0228 2.3491 24.5076C2.7471 24.9669 3.19102 25.3649 3.69617 25.6863C3.78802 25.7475 3.89517 25.8088 4.00233 25.87C5.02794 26.467 6.22194 26.7885 7.50779 26.7885C9.57433 26.7885 11.5796 25.9312 13.141 24.5689C13.1869 24.6607 13.2482 24.7525 13.3094 24.8444C13.34 24.8903 13.3859 24.9515 13.4166 24.9975C13.4166 25.0128 13.4319 25.0128 13.4319 25.0281C13.4625 25.074 13.5084 25.1199 13.539 25.1659C13.5696 25.1965 13.6003 25.2271 13.6156 25.2577C13.6309 25.2883 13.6615 25.3036 13.6921 25.3342C13.738 25.3802 13.7839 25.4261 13.8146 25.472C13.8299 25.4873 13.8452 25.5026 13.8605 25.5179C13.9217 25.5639 13.9676 25.6251 14.0289 25.671C14.0289 25.671 14.0289 25.671 14.0442 25.6863C14.5646 26.1302 15.2229 26.4823 15.9883 26.666C16.0036 26.666 16.0189 26.6813 16.0342 26.6813C16.1107 26.6966 16.1873 26.7119 16.2638 26.7272C16.2944 26.7272 16.325 26.7425 16.3709 26.7425C16.4322 26.7579 16.4934 26.7579 16.5699 26.7732C16.6312 26.7732 16.6771 26.7885 16.7383 26.7885C16.7843 26.7885 16.8302 26.8038 16.8914 26.8038C16.9986 26.8038 17.1057 26.8191 17.2282 26.8191C18.0242 26.8191 18.7743 26.666 19.4631 26.3752C19.7233 26.268 19.9683 26.1455 20.1979 25.9925C20.2744 25.9465 20.3509 25.9006 20.4275 25.8394C20.7336 25.6251 21.0245 25.3955 21.2847 25.1199C21.3766 25.2424 21.4837 25.3495 21.5909 25.4567C22.295 26.1762 23.2441 26.6201 24.3309 26.7579C24.3616 26.7579 24.4075 26.7732 24.4381 26.7732C24.4687 26.7732 24.4993 26.7732 24.5299 26.7732C24.5912 26.7732 24.6524 26.7885 24.7136 26.7885C24.7443 26.7885 24.7749 26.7885 24.7902 26.7885C24.8514 26.7885 24.9279 26.7885 24.9892 26.7885C26.5812 26.7885 27.9895 26.1915 29.0304 25.1199C29.4284 25.6098 29.9336 26.0078 30.5153 26.2986C31.1735 26.6201 31.9236 26.7885 32.7196 26.7885C33.1329 26.7885 33.5309 26.7425 33.9136 26.666C35.5821 26.3292 36.9598 25.273 37.8017 23.681C37.8476 23.7575 37.8936 23.8188 37.9395 23.8953C38.0007 23.9872 38.0619 24.079 38.1232 24.1709C38.215 24.2933 38.3069 24.4005 38.3987 24.5229C39.6693 25.9925 41.4909 26.8038 43.5574 26.8038C46.374 26.8038 49.0682 25.2271 50.6755 22.9309C51.4103 21.8747 51.9154 20.6807 52.1144 19.4102C52.1603 19.0887 52.1909 18.7672 52.2063 18.4458C52.4818 18.4152 52.7573 18.3692 53.0176 18.308C54.1963 18.0784 55.2984 17.6957 56.2781 17.1752C56.2475 17.2518 56.2169 17.3436 56.1863 17.4202C55.727 18.6295 55.3137 19.6704 55.0994 20.2368C54.4259 21.9359 54.533 23.5892 55.4056 24.875C55.727 25.3495 56.1403 25.7475 56.6149 26.0537C57.3803 26.5435 58.2987 26.8191 59.309 26.8191C61.743 26.8191 63.7483 25.4261 64.6973 23.0687C64.8198 22.7625 65.0647 22.1196 65.3862 21.2777C66.0597 19.5479 67.07 16.9456 67.9885 14.5882C68.065 14.3739 68.1569 14.1596 68.2334 13.9606C69.0294 14.9556 70.101 15.7057 71.1419 16.1496C71.2031 16.1802 71.249 16.1955 71.3103 16.2262C71.4327 16.2721 71.5552 16.318 71.6623 16.3639C71.1419 17.7722 70.3153 20.0072 70.2081 20.2521C69.7948 21.3083 69.6723 22.3339 69.856 23.2677C69.9632 23.8494 70.1928 24.4005 70.5143 24.8903C70.7286 25.1965 70.9735 25.472 71.249 25.7169C72.0144 26.3752 73.0094 26.7732 74.1116 26.8344C74.2187 26.8344 74.3106 26.8497 74.4177 26.8497C74.5861 26.8497 74.7545 26.8344 74.9229 26.8191C74.9535 26.8191 74.9994 26.8191 75.03 26.8038C75.0453 26.8038 75.0606 26.8038 75.076 26.8038C75.7801 26.7272 76.4536 26.5129 77.0813 26.2068C77.7242 25.8853 78.3059 25.4567 78.7957 24.9515C79.7601 25.9006 81 26.5129 82.393 26.7425C82.7757 26.8038 83.1737 26.8344 83.587 26.8344C84.1075 26.8344 84.628 26.7732 85.1331 26.6813C86.5261 26.4058 87.8426 25.7475 88.9447 24.8444C89.0519 24.7679 89.1437 24.676 89.2356 24.5842C89.2968 24.6913 89.358 24.7985 89.4193 24.8903C89.955 25.671 90.7204 26.2374 91.6236 26.5589C91.6695 26.5742 91.7154 26.5895 91.746 26.6048C91.792 26.6201 91.8532 26.6354 91.8991 26.6507C91.9603 26.666 92.0063 26.6813 92.0675 26.6966C92.1134 26.7119 92.1593 26.7119 92.2053 26.7272C92.2665 26.7425 92.3124 26.7579 92.3737 26.7579C92.4196 26.7732 92.4655 26.7732 92.5114 26.7885C92.5726 26.8038 92.6186 26.8038 92.6798 26.8038C92.741 26.8038 92.8023 26.8191 92.8635 26.8191C92.9094 26.8191 92.9553 26.8344 93.0013 26.8344C93.1084 26.8344 93.2156 26.8497 93.338 26.8497C95.772 26.8497 97.7773 25.4567 98.7263 23.0993C98.7723 22.9615 99.6601 20.7419 100.38 18.905C100.594 18.3539 100.793 17.8335 100.946 17.4202C101.023 17.5885 101.114 17.7722 101.191 17.9406C101.482 18.5223 101.788 19.1193 102.109 19.7316C102.37 20.2215 102.645 20.7266 102.89 21.2318C103.64 22.7319 104.268 24.2627 104.268 25.7629C104.268 30.1868 101.267 30.9675 100.349 31.1052C99.7367 31.1971 99.2774 31.6716 99.1856 32.2533C99.1703 32.3911 99.155 32.5289 99.1856 32.6666C99.1856 32.7125 99.2009 32.7585 99.2162 32.7891C99.3693 33.4014 99.9203 33.8453 100.548 33.8453C100.579 33.8453 100.609 33.8453 100.655 33.8453C100.686 33.8453 100.716 33.8453 100.762 33.8453C101.482 33.7382 102.247 33.5085 102.967 33.1565C105.094 31.9625 107.008 29.6357 107.008 25.671ZM89.3733 18.9509C89.1131 20.7572 87.965 22.3492 86.4649 23.2524C86.4496 23.2677 86.419 23.283 86.4037 23.283C86.4037 23.283 86.3883 23.283 86.3883 23.2983C85.5923 23.7575 84.7045 24.0178 83.786 24.0178C83.3574 24.0178 82.9441 23.9565 82.5614 23.8341C81.8879 23.6198 81.2909 23.2371 80.847 22.7013C80.403 22.1655 80.1275 21.5073 80.0203 20.7725V20.7572C79.9591 20.3133 79.9591 19.8541 80.0356 19.3795C80.1428 18.6754 80.3724 18.0019 80.7245 17.3895C81.1837 16.5629 81.8267 15.8588 82.5767 15.323C83.4799 14.6954 84.5361 14.3127 85.623 14.3127C86.3577 14.3127 87.0313 14.4811 87.5977 14.8179C87.965 15.0322 88.2865 15.3077 88.562 15.6292C88.6998 15.7975 88.8223 15.9659 88.9141 16.1496C89.2662 16.7619 89.4346 17.4814 89.4346 18.2468C89.4346 18.4764 89.4193 18.706 89.3733 18.9509ZM42.3022 23.88C41.5521 23.681 40.9092 23.283 40.4346 22.686C39.7152 21.8135 39.4243 20.6348 39.608 19.3642V19.3489C39.6539 19.0275 39.7305 18.7519 39.807 18.5223C39.9142 18.2468 40.0213 17.9559 40.1438 17.6651C40.1591 17.6192 40.1897 17.5885 40.205 17.5426C40.2509 17.4661 40.2816 17.3895 40.3275 17.313C40.3428 17.2824 40.3581 17.2671 40.3734 17.2365C40.7102 16.6701 41.1235 16.1649 41.598 15.7363C42.6083 14.8485 43.8789 14.2974 45.1953 14.2974C45.7923 14.2974 46.3587 14.4198 46.8486 14.6342C47.3537 14.8638 47.7823 15.1852 48.1344 15.6139C48.8539 16.4864 49.1447 17.6651 48.961 18.9509C48.5477 21.7369 46.0373 24.0178 43.3584 24.0178C42.991 24.0178 42.6389 23.9719 42.3022 23.88ZM7.66087 24.0178C6.45156 24.0178 5.41064 23.5432 4.70648 22.7013C4.62994 22.6095 4.56871 22.5176 4.50748 22.4258C3.92579 21.5839 3.71148 20.5123 3.87987 19.3642C4.29317 16.5782 6.81894 14.2974 9.5131 14.2974C10.7224 14.2974 11.7633 14.7719 12.4675 15.6139C13.1869 16.4864 13.4931 17.6651 13.2941 18.9509C13.2635 19.1652 13.2176 19.3795 13.1563 19.5939C12.4828 22.0737 10.1407 24.0178 7.66087 24.0178Z" fill="#889494"/>
</svg>
