<svg width="83" height="32" viewBox="0 0 83 32" fill="none" xmlns="http://www.w3.org/2000/svg">
<path d="M73.1417 5.42821C68.0892 5.42821 63.9778 9.55739 63.9778 14.6335C63.9778 19.7097 68.0892 23.8389 73.1417 23.8389C78.1929 23.8389 82.3032 19.7097 82.3032 14.6335C82.3032 9.55739 78.1929 5.42821 73.1417 5.42821V5.42821ZM73.1417 19.4762C70.4845 19.4762 68.3204 17.3014 68.3204 14.6335C68.3204 11.9645 70.4845 9.79087 73.1417 9.79087C75.7965 9.79087 77.9618 11.9645 77.9618 14.6335C77.9618 17.3026 75.7977 19.4762 73.1405 19.4762H73.1417ZM46.1574 12.7692L44.555 11.9657C43.8593 11.6196 43.4232 11.3518 43.2478 11.1538C43.0806 10.9785 42.9854 10.7466 42.9811 10.5044C42.9811 10.1938 43.1209 9.93191 43.3959 9.72806C43.6685 9.51473 44.0561 9.41754 44.5479 9.41754C45.4475 9.41754 46.4442 9.96035 47.5417 11.0543L50.2463 8.33665C49.5817 7.43169 48.7127 6.69664 47.71 6.19147C46.7205 5.6936 45.6272 5.43693 44.5195 5.44243C42.8685 5.44243 41.5055 5.92954 40.4436 6.91087C39.3829 7.89221 38.8495 9.07147 38.8495 10.4546C38.8495 12.5998 40.254 14.387 43.0724 15.8057L44.5479 16.5464C45.8196 17.19 46.4525 17.8454 46.4525 18.5233C46.4525 18.8907 46.2759 19.2084 45.9251 19.4904C45.5743 19.7737 45.1097 19.9076 44.5337 19.9076C44.0004 19.9076 43.3888 19.7239 42.7002 19.3506C42.0141 18.9832 41.4036 18.4894 40.9011 17.8952L38.2107 20.8392C39.7278 22.8303 41.7509 23.8329 44.2943 23.8329C46.206 23.8329 47.7313 23.3103 48.862 22.2721C49.9998 21.235 50.5686 19.9361 50.5686 18.3823C50.5686 17.2172 50.2534 16.1944 49.6276 15.3257C48.9959 14.4569 47.8368 13.6107 46.1574 12.7704V12.7692ZM18.9503 21.8335V5.79443H14.6007V6.86821C13.135 5.92618 11.4291 5.42625 9.68687 5.42821C4.63561 5.42821 0.525391 9.55739 0.525391 14.6335C0.525391 19.7097 4.63561 23.8389 9.68806 23.8389C11.4094 23.8415 13.096 23.3543 14.5509 22.4344C14.5509 22.5755 14.5438 22.7023 14.5438 22.7876C14.5438 25.4555 12.3796 27.6303 9.72361 27.6303C8.82052 27.6282 7.93639 27.371 7.17309 26.8884L5.02198 30.6727C6.44043 31.5379 8.06922 31.997 9.73072 32.0001C14.7832 32.0001 18.9503 27.8697 18.9503 22.7935C18.9503 22.5968 18.9633 22.0172 18.9503 21.8335V21.8335ZM9.68806 19.475C7.03324 19.475 4.86791 17.3014 4.86791 14.6335C4.86791 11.9645 7.03206 9.79087 9.68806 9.79087C12.3441 9.79087 14.5082 11.9645 14.5082 14.6335C14.5082 17.3014 12.3441 19.4762 9.68806 19.4762V19.475ZM36.2765 5.7885H31.9055V14.5399C31.9126 15.7832 31.9126 17.9295 31.0001 18.8469C30.5639 19.2842 30.0863 19.6801 29.0812 19.6801C28.0691 19.6801 27.5915 19.2842 27.1565 18.8469C26.2427 17.9284 26.2498 15.7761 26.2558 14.5399V5.7885H21.886V14.5138C21.8718 16.3129 21.8504 19.6528 24.043 21.8691C25.3289 23.1681 26.8614 23.8318 29.0741 23.8318C31.2881 23.8318 32.8193 23.1752 34.1052 21.8691C36.2978 19.6528 36.2765 16.3058 36.2623 14.5138L36.2765 5.78732V5.7885ZM61.0457 18.6928C60.6949 18.9607 59.8439 19.5544 58.8815 19.4205C58.0946 19.3138 57.4558 18.7355 57.3574 16.8012V9.54435H62.494V5.77428H57.3574V0.881836H53.0007V1.84184H52.9935V16.23C52.9935 18.5174 53.5695 23.8318 58.8744 23.8318C61.5589 23.7903 63.1885 22.3289 63.8712 21.7577L63.9624 21.6866L61.3479 18.4534C61.3408 18.4593 61.1583 18.6075 61.0457 18.6928V18.6928Z" fill="#889494"/>
</svg>
