<svg width="114" height="40" viewBox="0 0 114 40" fill="none" xmlns="http://www.w3.org/2000/svg">
<g clip-path="url(#clip0_1155_5977)">
<path d="M13.0848 8.06592C12.557 8.26453 12.0384 8.4957 11.5288 8.75945" stroke="#889494" stroke-width="0.0868546"/>
<path d="M34.3237 9.26123L34.6559 10.5528" stroke="#889494" stroke-width="0.0868546"/>
<path d="M34.8497 11.9766L34.8389 11.9909C34.8332 11.9985 34.8302 12.0076 34.8302 12.0169L34.8232 12.7834C34.8232 12.7922 34.826 12.8008 34.8311 12.8082L34.8389 12.8199" stroke="#889494" stroke-width="0.0868546"/>
<path d="M34.7317 13.853C34.6955 14.0001 34.6739 14.1551 34.667 14.3181" stroke="#889494" stroke-width="0.0868546"/>
<path d="M11.314 14.624C11.8664 14.7022 12.4128 14.8108 12.9534 14.9497" stroke="#889494" stroke-width="0.0868546"/>
<path d="M17.0682 7.24805C16.0141 7.37659 14.964 7.5655 13.918 7.81477" stroke="#889494" stroke-width="0.0868546"/>
<path d="M13.7446 15.1206C14.8706 15.3366 15.9927 15.5707 17.1111 15.8228" stroke="#889494" stroke-width="0.0868546"/>
<path d="M28.7046 16.2322C28.9187 16.1944 29.3243 15.3546 29.4085 15.147" stroke="#889494" stroke-width="0.0868546"/>
<path d="M29.937 13.6046C30.0577 13.1536 30.1141 12.6945 30.1059 12.2275" stroke="#889494" stroke-width="0.0868546"/>
<path d="M29.9409 10.5414C29.819 9.87932 29.5852 9.25961 29.2395 8.68232C29.2334 8.67219 29.2145 8.65438 29.1826 8.62891" stroke="#889494" stroke-width="0.0868546"/>
<path d="M18.2728 7.18408L17.9453 7.19624" stroke="#889494" stroke-width="0.0868546"/>
<path d="M16.4472 8.26335C15.4857 8.24279 14.5432 8.34398 13.6196 8.5669" stroke="#889494" stroke-width="0.0868546"/>
<path d="M12.8425 8.78418C12.3156 8.92054 11.8137 9.11466 11.3369 9.36654" stroke="#889494" stroke-width="0.0868546"/>
<path d="M11.1597 10.4747L12.5602 10.2793" stroke="#889494" stroke-width="0.0868546"/>
<path d="M13.2661 10.2142C14.1124 10.1523 14.9592 10.145 15.8066 10.1925" stroke="#889494" stroke-width="0.0868546"/>
<path d="M15.6692 11.6525C14.8484 11.4753 14.0181 11.3566 13.1782 11.2964" stroke="#889494" stroke-width="0.0868546"/>
<path d="M12.4682 11.2597C11.996 11.2473 11.5288 11.2587 11.0664 11.2941" stroke="#889494" stroke-width="0.0868546"/>
<path d="M11.0933 13.1475L12.5607 13.2326" stroke="#889494" stroke-width="0.0868546"/>
<path d="M13.2764 13.2852L15.9919 13.6478" stroke="#889494" stroke-width="0.0868546"/>
<path d="M22.4322 0H23.887C24.1354 0.0243193 24.3829 0.0524022 24.6296 0.0842488C26.1947 0.285462 27.652 0.791823 29.0014 1.60333C29.0371 1.62476 29.02 1.64097 28.9502 1.65197C28.9412 1.65339 28.932 1.65186 28.9241 1.64763C28.2976 1.33351 27.6458 1.08698 26.9686 0.908063C24.6009 0.282711 22.0105 0.258392 19.7184 1.13302C16.5656 2.33639 14.1714 4.87514 13.0853 8.06617C12.5575 8.26478 12.0388 8.49596 11.5293 8.75971C12.0222 6.97311 12.896 5.4562 14.1041 4.06826C16.2186 1.63938 19.2242 0.222347 22.4322 0Z" fill="#889494"/>
<path d="M34.324 9.26148L34.6562 10.553C34.7344 11.0162 34.7923 11.4818 34.8299 11.9496C34.8302 11.9535 34.8313 11.9572 34.8331 11.9605C34.8349 11.9639 34.8373 11.9668 34.8403 11.9692L34.8499 11.977L34.839 11.9913C34.8334 11.9989 34.8303 12.0081 34.8303 12.0174L34.8234 12.7839C34.8234 12.7926 34.8261 12.8013 34.8312 12.8086L34.839 12.8203L34.7322 13.8535C34.696 14.0005 34.6744 14.1556 34.6675 14.3186C34.6194 14.4709 34.5773 14.6273 34.5411 14.788C34.3123 15.8064 33.9145 16.8065 33.432 17.7311C31.7474 20.9573 28.5286 23.4987 24.905 24.0589C24.1673 24.1729 23.3638 24.21 22.4944 24.17C20.3777 24.0731 18.4372 23.4542 16.6729 22.3135C13.9061 20.5243 12.0162 17.8566 11.314 14.6243C11.8664 14.7025 12.4128 14.811 12.9534 14.95C13.3598 16.4383 14.2575 17.851 15.2967 18.967C17.0086 20.807 19.309 21.8337 21.7921 22.0564C24.4842 22.2979 27.3487 21.2287 29.2629 19.3453C31.8933 16.7566 33.0281 13.0661 31.7952 9.49642C30.832 6.70796 28.3102 4.44453 25.4018 3.90126C22.9191 3.43702 20.4446 3.99463 18.4964 5.62141C17.9078 6.11301 17.4317 6.65541 17.0681 7.24863C16.014 7.37717 14.9639 7.56608 13.9179 7.81535C14.9237 5.17932 17.003 3.01534 19.6238 1.95442C23.2417 0.489615 27.059 1.06285 30.2079 3.32758C32.2916 4.82626 33.5097 6.87602 34.324 9.26148Z" fill="#889494"/>
<path d="M13.7451 15.1209C14.871 15.3368 15.9932 15.5709 17.1116 15.8231C17.1061 15.8532 17.1154 15.8852 17.1394 15.9191C18.7788 18.1977 21.3328 19.3637 24.1343 18.9989C25.9308 18.7648 27.6597 17.7287 28.7202 16.2708C28.7225 16.2678 28.724 16.2641 28.7245 16.2603C28.725 16.2565 28.7244 16.2526 28.7228 16.2491C28.7193 16.241 28.7134 16.2355 28.705 16.2326C28.9191 16.1948 29.3247 15.3549 29.409 15.1474C29.6692 14.6627 29.8454 14.1485 29.9375 13.6048C30.0582 13.1538 30.1145 12.6947 30.1064 12.2277C30.1469 11.6557 30.0918 11.0937 29.9409 10.5419C29.8191 9.87977 29.5853 9.26007 29.2396 8.68277C29.2335 8.67264 29.2145 8.65484 29.1827 8.62936C29.1847 8.60938 29.1839 8.59621 29.1801 8.58984C28.3168 7.12808 26.9305 6.01157 25.3302 5.48219C23.1272 4.75304 20.9371 5.13347 19.0459 6.46408C18.7167 6.69569 18.4592 6.9357 18.2733 7.1841L17.9459 7.19626C20.0751 4.35829 24.3101 3.66606 27.3514 5.32542C28.6828 6.05152 29.8658 7.16716 30.5906 8.5108C31.8005 10.7543 31.9434 13.465 30.889 15.8083C29.8467 18.1247 28.0149 19.9873 25.5999 20.8337C22.2439 22.0102 18.8934 21.2819 16.2509 18.9355C15.0948 17.9089 14.2519 16.5791 13.7451 15.1209Z" fill="#889494"/>
<path d="M34.6559 10.5526L34.3237 9.26111C34.9462 9.27095 35.4651 9.2737 35.8806 9.26936C39.2966 9.23418 42.6062 8.45293 45.5389 6.66199C45.5441 6.65885 45.5499 6.65684 45.556 6.65609C45.562 6.65534 45.5682 6.65587 45.574 6.65765C45.6418 6.67733 45.6425 6.71265 45.5762 6.76361C42.4364 9.18251 38.5518 10.2391 34.6559 10.5526Z" fill="#889494"/>
<path d="M18.2733 7.18425C20.7612 7.14864 23.3595 7.42093 25.8388 7.95856C27.0782 8.22723 28.1032 8.43973 28.9139 8.59607C28.9408 8.60128 29.0304 8.61243 29.1827 8.62951C29.2145 8.65499 29.2335 8.67279 29.2396 8.68292C29.5852 9.26022 29.819 9.87992 29.9409 10.542C29.3451 10.4695 28.7284 10.4039 28.1561 10.3145C25.9226 9.9662 23.7152 9.46939 21.5073 8.98691C19.848 8.62386 18.1521 8.27818 16.4476 8.26385C15.4861 8.2433 14.5436 8.34448 13.62 8.56741C13.3511 8.62328 13.0921 8.69581 12.8431 8.78498C12.3162 8.92134 11.8143 9.11546 11.3375 9.36734C10.5955 9.71475 9.94636 10.1861 9.3902 10.7813C9.30103 10.8769 9.32231 10.9073 9.45404 10.8725C10.0189 10.7231 10.5876 10.5907 11.1603 10.4752L12.5608 10.2797L13.2665 10.2146C14.1128 10.1526 14.9596 10.1454 15.807 10.1929C17.6753 10.2803 19.5253 10.5124 21.3571 10.889C24.2611 11.4866 27.129 12.1206 30.1064 12.2279C30.1145 12.6949 30.0582 13.1539 29.9374 13.605C28.3949 13.6445 27.2445 13.6619 25.9908 13.5502C24.7412 13.4388 23.4371 13.2497 22.0784 12.9831C20.1563 12.6061 18.2429 12.1801 16.3282 11.7684C16.195 11.7398 15.9755 11.7013 15.6698 11.6529C14.849 11.4757 14.0187 11.357 13.1788 11.2968L12.4688 11.2603C11.9966 11.2479 11.5293 11.2593 11.0669 11.2946C8.9429 11.5027 6.82147 12.1323 5.27242 13.6758C5.2203 13.7279 5.18281 13.7749 5.15994 13.8169C5.12722 13.8768 5.14387 13.8977 5.20988 13.8794C6.59898 13.4897 7.9917 13.2629 9.38803 13.1989C9.95606 13.1729 10.5245 13.1558 11.0934 13.1477L12.5608 13.2328L13.2765 13.2853L15.992 13.648C17.4885 13.9116 18.9568 14.2607 20.5515 14.5704C23.492 15.1406 26.3794 15.3798 29.4089 15.1475C29.3247 15.3551 28.9191 16.195 28.705 16.2327C26.4942 16.5952 24.2726 16.7022 22.0402 16.5537C21.7689 16.5354 21.4807 16.5081 21.1755 16.4716C19.8125 16.3083 18.4578 16.0922 17.1116 15.8232C15.9932 15.5711 14.871 15.337 13.7451 15.121L12.9534 14.9499C12.4129 14.8109 11.8664 14.7024 11.314 14.6242C8.24198 13.9394 4.82251 14.0497 2.09701 15.8232C1.41476 16.2671 0.876261 16.8229 0.411153 17.4956C0.40552 17.5035 0.397266 17.5093 0.387702 17.5121C0.309243 17.5359 0.291004 17.5043 0.332984 17.4174C0.522906 17.0257 0.768126 16.6719 1.06864 16.3561C2.1083 15.2635 3.33078 14.4873 4.73609 14.0275C4.74484 14.0247 4.75244 14.0192 4.7578 14.0119C5.72146 12.6921 7.04078 11.7524 8.57203 11.1761C8.96896 11.0267 9.02585 10.9003 9.26991 10.6107C9.92132 9.83765 10.677 9.29047 11.5294 8.75979C12.039 8.49604 12.5577 8.26486 13.0854 8.06626L13.9179 7.81525C14.964 7.56598 16.014 7.37707 17.0682 7.24852L17.9458 7.19641L18.2733 7.18425Z" fill="#889494"/>
<path d="M16.4472 8.26383C16.162 8.88311 15.9485 9.52612 15.8066 10.1929C14.9592 10.1454 14.1124 10.1526 13.2661 10.2146C13.3622 9.66248 13.4801 9.11342 13.6196 8.56739C14.5432 8.34446 15.4857 8.24328 16.4472 8.26383Z" fill="#889494"/>
<path d="M12.8425 8.78467C12.722 9.278 12.6279 9.77626 12.5602 10.2794L11.1597 10.4749L11.3369 9.36703C11.8137 9.11515 12.3156 8.92103 12.8425 8.78467Z" fill="#889494"/>
<path d="M34.8389 12.8198L34.8311 12.8081C34.826 12.8008 34.8232 12.7921 34.8232 12.7834L34.8302 12.0169C34.8302 12.0076 34.8332 11.9984 34.8389 11.9908L34.8497 11.9765C34.9305 11.9721 35.0414 11.9584 35.1824 11.9352C37.3914 11.5681 39.441 10.8074 41.3313 9.65313C41.356 9.63837 41.4255 9.63229 41.4277 9.65617C41.4293 9.67437 41.4262 9.69268 41.4188 9.70939C41.4113 9.72611 41.3997 9.74067 41.3851 9.75171C39.4248 11.2269 37.2256 12.2449 34.8389 12.8198Z" fill="#889494"/>
<path d="M12.4684 11.2602C12.4351 11.9206 12.4658 12.5781 12.5605 13.2327L11.0931 13.1476C11.0525 12.5306 11.0437 11.9129 11.0666 11.2945C11.5289 11.2592 11.9962 11.2478 12.4684 11.2602Z" fill="#889494"/>
<path d="M15.6698 11.6525C15.6663 12.332 15.7737 12.997 15.992 13.6475L13.2765 13.2849C13.1795 12.6245 13.147 11.9617 13.1788 11.2964C14.0187 11.3566 14.849 11.4753 15.6698 11.6525Z" fill="#889494"/>
<path d="M34.667 14.3185C34.6739 14.1555 34.6955 14.0005 34.7317 13.8534C35.5545 13.5231 36.3426 13.1238 37.0959 12.6557C37.2197 12.5788 37.2709 12.6691 37.1684 12.7486C36.3876 13.354 35.5538 13.8773 34.667 14.3185Z" fill="#889494"/>
<path d="M75.1641 27.468C75.1735 27.463 75.1809 27.4548 75.1847 27.4449C75.1885 27.435 75.1886 27.4241 75.1849 27.4141L74.2998 25.0691C74.297 25.0612 74.2918 25.0543 74.2851 25.0495C74.104 24.9149 73.9668 24.9709 73.7726 24.9709C72.0607 24.9709 70.3484 24.9709 68.6356 24.9709C68.5476 24.9709 68.4888 25.0133 68.4593 25.0982L67.6702 27.3703C67.6473 27.4366 67.6693 27.4784 67.7362 27.4958C68.3103 27.6463 68.8807 27.8231 69.4473 28.026C69.515 28.0504 69.5664 28.0711 69.6014 28.0881C69.6738 28.1235 69.71 28.1773 69.71 28.2497V29.7371C69.7097 29.8071 69.6724 29.8422 69.598 29.8422C67.6064 29.8465 65.6152 29.8574 63.6263 29.833C63.5582 29.8325 63.5241 29.7977 63.5238 29.7288L63.5225 28.2605C63.5222 28.1685 63.5629 28.1009 63.6445 28.0577C63.9945 27.8719 64.3511 27.7 64.7141 27.5423C64.8778 27.471 64.9304 27.3868 64.9864 27.2283C66.5176 22.9047 68.0524 18.5828 69.5906 14.2626C69.5935 14.2543 69.599 14.247 69.6063 14.2419C69.6136 14.2367 69.6224 14.234 69.6314 14.234C70.7402 14.2334 71.8489 14.2333 72.9575 14.2335C73.0114 14.2335 73.1159 14.2637 73.271 14.3239C73.9778 14.5972 74.6435 14.9481 75.2683 15.3765C75.4737 15.5173 75.5175 15.6632 75.6183 15.9333C77.034 19.7337 78.4489 23.5346 79.8629 27.336C79.8916 27.4133 79.9621 27.4758 80.0744 27.5236C80.4589 27.6872 80.8331 27.8717 81.197 28.0773C81.2555 28.1106 81.2847 28.1608 81.2847 28.228V29.7262C81.2847 29.8055 81.2449 29.8452 81.1653 29.8452L73.195 29.8456C73.1893 29.8456 73.1836 29.8445 73.1783 29.8423C73.173 29.8401 73.1682 29.8368 73.1642 29.8328C73.1601 29.8287 73.157 29.8238 73.1548 29.8185C73.1526 29.8132 73.1516 29.8075 73.1516 29.8018C73.1568 29.2963 73.1542 28.7798 73.1438 28.2523C73.1424 28.173 73.191 28.1146 73.2897 28.0773C73.8676 27.8584 74.4553 27.6695 75.0529 27.5105C75.0931 27.4998 75.1302 27.4857 75.1641 27.468ZM71.3164 17.0858C71.3146 17.0814 71.3116 17.0776 71.3077 17.0749C71.3037 17.0723 71.2991 17.0709 71.2943 17.0709C71.2895 17.071 71.2849 17.0725 71.281 17.0752C71.2771 17.0779 71.2742 17.0818 71.2725 17.0863L69.2779 22.79C69.2766 22.7936 69.2763 22.7973 69.2768 22.8011C69.2773 22.8048 69.2787 22.8083 69.2809 22.8114C69.283 22.8144 69.2859 22.8169 69.2893 22.8187C69.2926 22.8204 69.2963 22.8213 69.3 22.8213H73.4152C73.419 22.8213 73.4228 22.8204 73.4262 22.8187C73.4296 22.8169 73.4325 22.8144 73.4346 22.8113C73.4368 22.8081 73.4382 22.8045 73.4387 22.8008C73.4392 22.797 73.4387 22.7931 73.4374 22.7896L71.3164 17.0858Z" fill="#889494"/>
<path d="M47.9332 16.6901C47.3851 16.5347 46.8322 16.3443 46.2743 16.1191C46.1366 16.0635 46.1062 15.9458 46.1101 15.7981C46.1162 15.5535 46.1194 15.3092 46.1197 15.0651C46.1197 14.8875 46.0945 14.6022 46.1271 14.3659C46.1285 14.3555 46.1337 14.346 46.1416 14.3391C46.1495 14.3322 46.1596 14.3285 46.17 14.3286C48.0982 14.3352 50.0247 14.3325 51.9494 14.3203C52.1009 14.3195 52.2221 14.4119 52.3189 14.5392C54.8481 17.8599 57.3732 21.1715 59.894 24.474C59.9458 24.5421 59.9719 24.5332 59.9721 24.4475C59.973 21.9192 59.9729 19.391 59.9717 16.863C59.9717 16.7327 59.9318 16.691 59.805 16.6593C59.146 16.4954 58.5018 16.2915 57.8724 16.0474C57.8642 16.0442 57.8572 16.0386 57.8522 16.0313C57.8473 16.024 57.8446 16.0154 57.8446 16.0066V14.3742C57.8446 14.3627 57.8492 14.3516 57.8574 14.3435C57.8655 14.3353 57.8765 14.3307 57.8881 14.3307H64.4239C64.4966 14.3307 64.5327 14.3669 64.5325 14.4393C64.5316 14.9017 64.532 15.3713 64.5338 15.8481C64.5346 16.0075 64.5055 16.0587 64.3527 16.1225C63.8952 16.3145 63.4278 16.4785 62.9504 16.6146C62.8667 16.6386 62.8029 16.6615 62.7589 16.6832C62.7013 16.7116 62.6723 16.7579 62.672 16.8222C62.6633 20.7309 62.662 24.6123 62.6681 28.4663C62.6684 28.5497 62.6715 28.628 62.6772 28.7012C62.6825 28.7658 62.656 28.8137 62.5978 28.845L60.4768 29.9806C60.4704 29.9841 60.4635 29.9858 60.4559 29.9858C59.97 29.9863 59.4506 29.9615 58.9442 29.9962C58.7769 30.0075 58.6343 29.936 58.5165 29.7817C54.6213 24.6805 52.0297 21.2898 50.7416 19.6098C50.7263 19.5895 50.7084 19.5827 50.6878 19.5893C50.6821 19.5912 50.6772 19.5948 50.6737 19.5996C50.6702 19.6043 50.6683 19.61 50.6683 19.6158V27.4306C50.6683 27.4404 50.6716 27.45 50.6776 27.4577C50.6837 27.4655 50.6922 27.4709 50.7017 27.4731C51.3815 27.6309 52.0471 27.8353 52.6985 28.0863C52.7706 28.1141 52.8066 28.1656 52.8066 28.2409V29.7009C52.8066 29.7968 52.757 29.8447 52.6577 29.8447C50.5488 29.8456 48.4236 29.8454 46.2821 29.8443C46.0914 29.8443 46.1123 29.7617 46.111 29.6019C46.1069 29.1648 46.1059 28.7283 46.1079 28.2926C46.1084 28.168 46.1627 28.0946 46.2808 28.0446C46.7843 27.8321 47.3155 27.6487 47.8746 27.4944C47.9348 27.4779 47.9649 27.44 47.9649 27.3806V16.7323C47.9649 16.7228 47.9618 16.7135 47.9561 16.7059C47.9504 16.6983 47.9423 16.6928 47.9332 16.6901Z" fill="#889494"/>
<path d="M83.8252 27.4793C83.8344 27.4767 83.8426 27.4711 83.8483 27.4635C83.8541 27.4559 83.8573 27.4467 83.8573 27.4372V16.7398C83.8573 16.7308 83.8546 16.7221 83.8494 16.7148C83.8443 16.7075 83.8371 16.702 83.8287 16.6989C83.2598 16.4953 82.6917 16.3367 82.1324 16.0996C82.0516 16.0655 82.0112 16.0042 82.0112 15.9159L82.0117 14.3769C82.0117 14.3654 82.0162 14.3545 82.0244 14.3463C82.0325 14.3382 82.0435 14.3336 82.0551 14.3335C84.6234 14.3279 87.1917 14.3226 89.76 14.3174C89.8156 14.3174 89.8855 14.3374 89.948 14.3361C91.2365 14.3156 92.3009 14.2757 93.4544 14.5819C95.6822 15.1729 96.9824 16.7806 96.8821 19.1183C96.8052 20.9079 95.6848 22.1048 94.1818 22.8947C94.1763 22.8975 94.1715 22.9015 94.1676 22.9064C94.1638 22.9112 94.1611 22.9169 94.1596 22.9229C94.1581 22.9289 94.1579 22.9351 94.1591 22.9412C94.1602 22.9473 94.1626 22.953 94.1661 22.9581C95.1085 24.3064 96.038 25.6419 96.9546 26.9647C97.0988 27.1723 97.8796 27.2544 98.1345 27.3021C98.1979 27.314 98.2296 27.3547 98.2296 27.4242V29.7258C98.2296 29.8019 98.1936 29.8413 98.1215 29.8439C97.0436 29.8842 95.9585 29.906 94.8662 29.9095C94.0476 29.9121 93.3901 29.7805 92.9363 29.0436C91.8384 27.2616 90.7442 25.4772 89.6536 23.6903C89.609 23.617 89.5443 23.5804 89.4595 23.5804L88.3846 23.5808C88.3123 23.5808 88.2761 23.617 88.2761 23.6894V27.359C88.2761 27.4291 88.3095 27.4735 88.3764 27.4923C88.9071 27.6438 89.4367 27.8257 89.9654 28.0382C90.0987 28.0916 90.143 28.1807 90.143 28.3279C90.1439 28.8209 90.1437 29.3117 90.1426 29.8001C90.1426 29.8116 90.138 29.8226 90.1299 29.8308C90.1217 29.8389 90.1107 29.8435 90.0992 29.8435L82.0555 29.8461C82.044 29.8461 82.033 29.8415 82.0248 29.8334C82.0167 29.8252 82.0121 29.8142 82.0121 29.8027L82.0112 28.2384C82.0112 28.1527 82.0534 28.0924 82.1376 28.0573C82.6877 27.8292 83.2502 27.6365 83.8252 27.4793ZM88.3147 21.459C88.3457 21.4769 88.3809 21.4864 88.4168 21.4864C89.2946 21.4846 90.1724 21.4829 91.0502 21.4811C91.2417 21.4807 91.3668 21.3834 91.4689 21.2362C92.1003 20.3242 92.332 19.3331 92.1641 18.2627C92.0512 17.5436 91.7272 16.9738 91.0524 16.6898C90.6998 16.5413 90.3559 16.4654 90.021 16.4623C89.4755 16.4573 88.9273 16.4568 88.3764 16.4605C88.3098 16.4608 88.2765 16.4942 88.2765 16.5608C88.2759 18.1711 88.2782 19.7792 88.2835 21.3852C88.2835 21.4222 88.2939 21.4468 88.3147 21.459Z" fill="#889494"/>
<path d="M37.1523 16.119C36.9399 15.9665 36.9881 15.8567 36.9881 15.6369C36.9887 15.2168 36.9888 14.796 36.9885 14.3745C36.9885 14.363 36.9931 14.3519 37.0013 14.3438C37.0094 14.3356 37.0204 14.3311 37.032 14.3311H45.0778C45.0863 14.3311 45.0946 14.3336 45.1017 14.3383C45.1088 14.343 45.1144 14.3497 45.1177 14.3575C45.1325 14.3923 45.1386 14.4557 45.1359 14.5478C45.1203 15.1103 45.1192 15.4542 45.1325 15.5796C45.1484 15.7298 45.1423 15.8802 45.1142 16.0308C45.1129 16.0379 45.1098 16.0445 45.1053 16.0501C45.1007 16.0557 45.0949 16.0601 45.0882 16.0629C44.5225 16.3032 43.9436 16.5068 43.3515 16.6735C43.293 16.69 43.2638 16.7279 43.2638 16.7873V27.4331C43.2638 27.4426 43.2669 27.4518 43.2727 27.4593C43.2784 27.4668 43.2864 27.4723 43.2955 27.4747C43.845 27.6291 44.3836 27.8117 44.9114 28.0228C45.0886 28.0936 45.1438 28.1896 45.139 28.3867C45.1283 28.8641 45.1273 29.3356 45.1359 29.8011C45.1361 29.8069 45.135 29.8127 45.1329 29.818C45.1308 29.8234 45.1276 29.8283 45.1235 29.8324C45.1195 29.8365 45.1147 29.8398 45.1093 29.842C45.104 29.8443 45.0983 29.8454 45.0925 29.8454H37.0971C37.0247 29.8454 36.9885 29.8092 36.9885 29.7369V28.1522C36.9885 28.1438 36.991 28.1356 36.9955 28.1286C37.0001 28.1216 37.0065 28.1161 37.0142 28.1127C37.5964 27.853 38.1958 27.6424 38.8125 27.4808C38.8218 27.4783 38.8301 27.4728 38.836 27.4652C38.8419 27.4576 38.8451 27.4483 38.8451 27.4387V16.8064C38.8451 16.7317 38.8089 16.6842 38.7365 16.664C38.2017 16.5131 37.6767 16.3332 37.1614 16.1242C37.1582 16.1227 37.1551 16.121 37.1523 16.119Z" fill="#889494"/>
<path d="M107.082 14.4179V16.0356C107.095 16.1155 105.491 16.6258 105.314 16.6779C105.254 16.6958 105.224 16.735 105.224 16.7956V27.3484C105.224 27.4277 105.26 27.4773 105.334 27.4973C105.916 27.6551 106.484 27.8541 107.037 28.0944C107.08 28.1136 107.09 28.1387 107.082 28.1843L107.091 29.8046V29.8363L99.0594 29.8454C98.9926 29.8454 98.9591 29.8118 98.9591 29.7447C98.9597 29.322 98.9593 28.8861 98.9578 28.4371C98.9578 28.362 98.9352 28.2747 98.9704 28.183C99.0551 27.9629 100.509 27.5533 100.784 27.4795C100.793 27.477 100.801 27.4716 100.807 27.464C100.812 27.4563 100.816 27.447 100.816 27.4374V16.7439C100.816 16.7348 100.813 16.726 100.808 16.7186C100.803 16.7113 100.795 16.7057 100.787 16.7026C100.218 16.4981 99.6079 16.3278 99.1024 16.1103C99.0043 16.0677 98.9556 15.9743 98.9561 15.8627C98.959 15.3616 98.9601 14.8655 98.9596 14.3745C98.9596 14.363 98.9642 14.3519 98.9724 14.3438C98.9806 14.3356 98.9918 14.3311 99.0034 14.3311H107.037C107.047 14.331 107.056 14.3342 107.064 14.3401C107.071 14.346 107.077 14.3543 107.079 14.3636C107.084 14.3813 107.084 14.3994 107.082 14.4179Z" fill="#889494"/>
<path d="M76.5157 33.7998C76.5157 33.956 76.4849 34.1107 76.4251 34.255C76.3654 34.3993 76.2777 34.5305 76.1673 34.6409C76.0568 34.7514 75.9257 34.839 75.7814 34.8988C75.6371 34.9585 75.4824 34.9893 75.3262 34.9893C75.0107 34.9893 74.7082 34.864 74.4851 34.6409C74.262 34.4178 74.1367 34.1153 74.1367 33.7998C74.1367 33.4844 74.262 33.1818 74.4851 32.9587C74.7082 32.7357 75.0107 32.6104 75.3262 32.6104C75.4824 32.6104 75.6371 32.6411 75.7814 32.7009C75.9257 32.7607 76.0568 32.8483 76.1673 32.9587C76.2777 33.0692 76.3654 33.2003 76.4251 33.3446C76.4849 33.4889 76.5157 33.6436 76.5157 33.7998ZM75.255 34.8043C75.3837 34.8136 75.513 34.7968 75.6355 34.7551C75.7581 34.7134 75.8714 34.6475 75.9691 34.5612C76.0668 34.4749 76.1469 34.3699 76.2048 34.2521C76.2628 34.1343 76.2975 34.0062 76.3069 33.8749C76.3259 33.6097 76.2408 33.348 76.0704 33.1474C75.9 32.9467 75.6583 32.8235 75.3983 32.8049C75.2696 32.7956 75.1402 32.8124 75.0177 32.8541C74.8952 32.8958 74.7818 32.9617 74.6842 33.048C74.5865 33.1343 74.5064 33.2393 74.4484 33.3571C74.3905 33.4749 74.3558 33.603 74.3464 33.7343C74.3274 33.9995 74.4124 34.2612 74.5828 34.4618C74.7532 34.6625 74.995 34.7857 75.255 34.8043Z" fill="#889494"/>
<path d="M60.5404 36.9414C58.9631 36.6331 58.5632 34.8869 59.2411 33.6409C59.846 32.5292 61.2192 32.4953 62.2957 32.7463C62.436 32.7793 62.4721 32.8401 62.4708 32.9856C62.4684 33.2911 62.4301 33.5836 62.3557 33.8633C62.3386 33.9279 62.2969 33.9646 62.2306 33.9736C62.0853 33.9936 61.9443 33.9953 61.8076 33.9788C61.4472 33.9362 61.5883 33.2392 61.0363 33.2362C60.8075 33.2349 60.5369 33.2006 60.434 33.4585C60.1461 34.1807 59.8812 35.6877 60.8192 36.0907C61.2748 36.2865 61.8167 36.1706 62.2045 35.8614C62.209 35.8578 62.2142 35.8552 62.2197 35.8536C62.2252 35.8521 62.231 35.8517 62.2367 35.8524C62.2424 35.8531 62.2479 35.855 62.2529 35.8579C62.2579 35.8608 62.2623 35.8646 62.2658 35.8692L62.4447 36.102C62.5014 36.1761 62.4967 36.2489 62.4304 36.3204C61.9375 36.8533 61.2483 37.0799 60.5404 36.9414Z" fill="#889494"/>
<path d="M64.2462 36.2261C64.254 36.2248 64.2614 36.2214 64.2674 36.2162C64.2735 36.211 64.278 36.2042 64.2805 36.1966C64.6253 35.1222 65.0118 34.0569 65.3041 32.9895C65.3523 32.8132 65.4374 32.6577 65.6311 32.6729C65.8756 32.6924 66.1696 32.666 66.3746 32.7268C66.666 32.8132 66.8514 32.9847 66.95 33.2809C67.4598 34.8162 67.7761 35.7512 67.8989 36.0859C67.9362 36.1872 68.0258 36.2662 68.1677 36.323C68.1751 36.3258 68.1815 36.3308 68.1864 36.3373C68.2671 36.4454 68.4109 36.8441 68.1481 36.845C67.5668 36.8473 66.9572 36.8483 66.3194 36.848C66.308 36.848 66.297 36.8435 66.2889 36.8354C66.2807 36.8274 66.2761 36.8164 66.276 36.805L66.2703 36.4189C66.2701 36.41 66.2727 36.4011 66.2778 36.3937C66.2828 36.3863 66.2901 36.3807 66.2986 36.3777L66.6729 36.2396C66.7355 36.2167 66.7601 36.1773 66.7467 36.1215C66.6816 35.8526 66.6573 35.5682 66.3047 35.5612C65.9711 35.5546 65.6296 35.5534 65.2802 35.5578C65.2084 35.5586 65.1615 35.5932 65.1395 35.6616C65.1047 35.7701 65.0602 35.8894 65.0057 36.0194C64.8993 36.273 65.2016 36.2926 65.3601 36.3399C65.4302 36.3607 65.4653 36.4071 65.4656 36.4789L65.4661 36.729C65.4661 36.8063 65.425 36.8452 65.3427 36.8458C64.9339 36.8487 64.5334 36.8492 64.1411 36.8471C63.9426 36.8458 63.9583 36.7768 63.9448 36.6183C63.9251 36.3933 64.0256 36.2626 64.2462 36.2261ZM65.4448 34.9633L66.286 34.9559C66.2928 34.9558 66.2995 34.9541 66.3055 34.951C66.3116 34.9478 66.3168 34.9433 66.3208 34.9378C66.3248 34.9322 66.3274 34.9258 66.3284 34.9191C66.3295 34.9124 66.3289 34.9055 66.3268 34.899L65.8917 33.5975C65.8659 33.521 65.8385 33.5205 65.8096 33.5957C65.6446 34.0251 65.5088 34.463 65.4022 34.9094C65.4007 34.9159 65.4007 34.9226 65.4021 34.9291C65.4035 34.9356 65.4064 34.9416 65.4105 34.9468C65.4146 34.952 65.4198 34.9562 65.4258 34.959C65.4317 34.9619 65.4382 34.9633 65.4448 34.9633Z" fill="#889494"/>
<path d="M40.9937 34.0697C40.9818 33.9643 40.9593 33.962 40.926 34.0628C40.7192 34.6904 40.5143 35.3184 40.311 35.9467C40.1655 36.397 39.6726 36.3501 39.2996 36.3466C39.1359 36.3449 39.1311 36.2576 39.079 36.1069C38.6983 35.0041 38.4636 34.3199 38.375 34.0541C38.369 34.0356 38.362 34.0217 38.3542 34.0124C38.3252 33.9782 38.3089 33.9836 38.3051 34.0285C38.2426 34.7916 38.2094 35.2573 38.2057 35.4255C38.201 35.6479 38.1825 35.8689 38.1501 36.0887C38.1394 36.161 38.1688 36.2087 38.2382 36.2315C38.5696 36.3405 38.7568 36.4039 38.6247 36.8178C38.622 36.8265 38.6165 36.8341 38.6091 36.8395C38.6017 36.8449 38.5927 36.8478 38.5835 36.8478H37.0896C37.0152 36.8478 36.9778 36.8119 36.9775 36.7401V36.4569C36.9773 36.3686 37.0129 36.3235 37.0844 36.3214C37.3884 36.3123 37.4466 36.129 37.4665 35.852C37.5189 35.1186 37.578 34.3857 37.6437 33.6533C37.6544 33.536 37.6549 33.4422 37.645 33.3719C37.6439 33.3642 37.6409 33.357 37.636 33.3508C37.6312 33.3447 37.6249 33.34 37.6177 33.3371L37.2715 33.2029C37.2658 33.2007 37.2606 33.1974 37.2562 33.193C37.2519 33.1887 37.2485 33.1835 37.2464 33.1777C37.1925 33.033 37.1882 32.8846 37.2333 32.7326C37.236 32.7236 37.2414 32.7157 37.2488 32.7101C37.2563 32.7044 37.2653 32.7014 37.2746 32.7013C37.8113 32.7008 38.3494 32.7008 38.8888 32.7013C39.0165 32.7013 39.0925 32.7365 39.1315 32.8572C39.3678 33.5836 39.6085 34.3089 39.8537 35.0329C39.8821 35.1166 39.9096 35.1165 39.9363 35.0325L40.6689 32.73C40.6716 32.7212 40.6772 32.7135 40.6847 32.708C40.6922 32.7026 40.7012 32.6996 40.7106 32.6996L42.4203 32.6987C42.4898 32.6987 42.5247 32.7355 42.525 32.809L42.5267 33.143C42.5268 33.1514 42.5245 33.1597 42.52 33.1668C42.5155 33.1739 42.5091 33.1795 42.5015 33.1829L42.1467 33.3436C42.1413 33.3461 42.1365 33.3496 42.1326 33.354C42.1286 33.3584 42.1256 33.3636 42.1237 33.3692C42.0933 33.4575 42.0839 33.5687 42.0955 33.7028C42.1658 34.5267 42.2324 35.3513 42.2952 36.1764C42.2959 36.1846 42.2988 36.1924 42.3038 36.199C42.3087 36.2057 42.3154 36.2107 42.323 36.2137L42.6995 36.3575C42.7075 36.3604 42.7144 36.3657 42.7195 36.3726C42.7245 36.3794 42.7274 36.3876 42.7278 36.3961L42.7425 36.7296C42.746 36.8081 42.6964 36.8475 42.5936 36.8478H40.7223C40.7123 36.8477 40.7026 36.8444 40.6949 36.8382C40.6872 36.832 40.6818 36.8235 40.6797 36.8139C40.649 36.6755 40.6511 36.5387 40.6858 36.4035C40.6874 36.3969 40.6906 36.3908 40.6951 36.3857C40.6997 36.3805 40.7054 36.3765 40.7119 36.374L41.0958 36.2215C41.1042 36.2185 41.1114 36.2125 41.1162 36.2046C41.1448 36.16 41.1571 36.0997 41.1531 36.0235C41.1192 35.3707 41.0661 34.7194 40.9937 34.0697Z" fill="#889494"/>
<path d="M49.3728 32.7121C50.2034 32.6832 51.0113 32.6839 51.7965 32.7143C52.5152 32.7416 53.1905 33.0769 53.4671 33.7518C53.686 34.2859 53.7525 34.9108 53.5853 35.465C53.3959 36.0938 53.0003 36.6236 52.3441 36.7882C52.1901 36.827 51.9023 36.8468 51.4808 36.8477C50.7842 36.8488 50.0839 36.8487 49.3798 36.8472C49.3686 36.8472 49.3579 36.8429 49.3498 36.8352C49.3417 36.8274 49.3369 36.8168 49.3363 36.8056L49.3224 36.4924C49.3195 36.4227 49.3541 36.3732 49.4262 36.3439L49.7506 36.2119C49.7587 36.2087 49.7656 36.2032 49.7705 36.1961C49.7753 36.1889 49.778 36.1805 49.778 36.1719V33.4608C49.778 33.3864 49.7493 33.3388 49.692 33.3179L49.4449 33.2276C49.3644 33.1978 49.3246 33.1561 49.3255 33.1025L49.3311 32.7547C49.3313 32.7435 49.3358 32.7329 49.3435 32.725C49.3513 32.717 49.3618 32.7124 49.3728 32.7121ZM50.9362 36.2301C51.235 36.255 51.5385 36.2611 51.8469 36.2484C52.0527 36.2401 52.1322 36.2549 52.2077 36.0573C52.6203 34.9838 52.7354 33.0382 50.9332 33.3144C50.9229 33.316 50.9135 33.3211 50.9067 33.329C50.9 33.3368 50.8962 33.3467 50.8962 33.357V36.1867C50.8964 36.1977 50.9006 36.2082 50.908 36.2162C50.9153 36.2242 50.9254 36.2292 50.9362 36.2301Z" fill="#889494"/>
<path d="M44.3706 33.1655C44.3646 33.1615 44.3597 33.1561 44.3563 33.1496C44.3529 33.1432 44.3511 33.136 44.3511 33.1286L44.3563 32.7868C44.3569 32.7301 44.3918 32.7017 44.4609 32.7017C45.4334 32.7009 46.3987 32.701 47.3567 32.7022C47.445 32.7025 47.5265 32.7085 47.6012 32.7204C47.6106 32.7219 47.6193 32.7264 47.6259 32.7333C47.6325 32.7402 47.6366 32.7491 47.6377 32.7586C47.6721 33.0852 47.6633 33.4097 47.6112 33.7323C47.6007 33.796 47.5634 33.8282 47.4991 33.8291C47.3246 33.8313 46.9897 33.8882 46.8881 33.7158C46.7939 33.5568 46.7109 33.2802 46.4777 33.2902C46.2945 33.298 46.1142 33.2989 45.937 33.2928C45.9312 33.2926 45.9254 33.2936 45.92 33.2957C45.9146 33.2978 45.9097 33.301 45.9055 33.305C45.9013 33.3091 45.898 33.3139 45.8957 33.3193C45.8935 33.3246 45.8923 33.3304 45.8923 33.3362C45.8912 33.6295 45.8906 33.9226 45.8906 34.2156C45.891 34.4102 45.9818 34.3802 46.1281 34.3806C46.4081 34.3812 46.6957 34.3793 46.991 34.375C47.0004 34.3749 47.0095 34.3777 47.0171 34.3831C47.0246 34.3885 47.0303 34.3961 47.0332 34.4049C47.1461 34.7541 46.9689 35.0216 46.6128 35.0155C46.3829 35.0118 46.1564 35.0135 45.9331 35.0207C45.9219 35.0211 45.9113 35.0258 45.9034 35.0339C45.8956 35.042 45.8911 35.0528 45.891 35.0642V36.1533C45.8907 36.2382 45.9346 36.2811 46.0226 36.2823C46.1555 36.2836 46.307 36.311 46.4178 36.2966C46.6734 36.2639 46.8296 36.1106 46.8864 35.8367C46.9281 35.6374 47.3784 35.7069 47.5347 35.6999C47.599 35.6968 47.6358 35.725 47.645 35.7846C47.6931 36.0944 47.7058 36.4055 47.6833 36.7179C47.6769 36.8044 47.6287 36.8477 47.5386 36.8477L44.4714 36.8482C44.3973 36.8482 44.3602 36.8121 44.3602 36.74L44.3598 36.4139C44.3597 36.4055 44.3622 36.3973 44.367 36.3903C44.3717 36.3832 44.3784 36.3777 44.3863 36.3744L44.7272 36.2272C44.7781 36.2051 44.8037 36.1587 44.804 36.0877C44.8063 35.2085 44.8068 34.341 44.8053 33.4852C44.8053 33.4018 44.7674 33.3468 44.6915 33.3201C44.5633 33.2747 44.4563 33.2231 44.3706 33.1655Z" fill="#889494"/>
<path d="M55.5745 33.2835C55.3239 33.1927 55.1902 32.9821 55.3261 32.7259C55.3297 32.7189 55.3352 32.7131 55.342 32.7091C55.3487 32.705 55.3564 32.7029 55.3643 32.7029L57.2039 32.7007C57.2682 32.7004 57.3005 32.7328 57.3008 32.798L57.3021 33.1245C57.3023 33.19 57.2702 33.2243 57.2056 33.2275C56.9199 33.2414 56.8565 33.4142 56.8565 33.6787C56.8565 34.4676 56.8565 35.2564 56.8565 36.045C56.8565 36.1365 56.8973 36.2025 56.979 36.243C57.0706 36.2886 57.1905 36.3199 57.2547 36.4037C57.3558 36.5352 57.3591 36.6763 57.2647 36.8271C57.2608 36.8334 57.2554 36.8386 57.249 36.8421C57.2425 36.8457 57.2352 36.8476 57.2278 36.8476L55.4043 36.848C55.331 36.848 55.2943 36.8119 55.294 36.7399L55.2922 36.4176C55.2921 36.409 55.2946 36.4006 55.2993 36.3935C55.3041 36.3863 55.3108 36.3808 55.3187 36.3777L55.6813 36.2261C55.7401 36.2015 55.7696 36.1553 55.7699 36.0876C55.7711 35.2075 55.7712 34.3391 55.7704 33.4824C55.7704 33.3651 55.6848 33.3234 55.5745 33.2835Z" fill="#889494"/>
<path d="M69.9534 33.217C69.8845 33.1901 69.851 33.1402 69.8527 33.0672L69.8601 32.7432C69.8604 32.7318 69.8651 32.721 69.8732 32.7131C69.8813 32.7051 69.8922 32.7007 69.9035 32.7007L71.8082 32.7011C71.8179 32.7011 71.8274 32.7044 71.835 32.7106C71.8427 32.7167 71.8481 32.7253 71.8503 32.735C71.8828 32.8751 71.8815 33.0131 71.8464 33.1489C71.8448 33.1551 71.8418 33.1609 71.8376 33.1658C71.8334 33.1706 71.8281 33.1745 71.8221 33.1771L71.4195 33.3621C71.412 33.3656 71.4056 33.3711 71.4012 33.3782C71.3967 33.3852 71.3943 33.3933 71.3944 33.4016L71.3939 36.1206C71.3939 36.2074 71.4337 36.2509 71.5134 36.2509L72.2473 36.25C72.2559 36.25 72.2643 36.2475 72.2715 36.2428C72.2787 36.2381 72.2843 36.2314 72.2877 36.2235L72.5943 35.4848C72.5976 35.4769 72.6032 35.4701 72.6104 35.4654C72.6176 35.4606 72.626 35.4582 72.6346 35.4583L73.161 35.46C73.2415 35.4603 73.2845 35.5023 73.29 35.586C73.3152 35.956 73.3725 36.3447 73.3082 36.7147C73.2929 36.8035 73.241 36.848 73.1527 36.848L69.9183 36.8475C69.9087 36.8475 69.8994 36.8443 69.8918 36.8384C69.8843 36.8325 69.8789 36.8243 69.8766 36.815C69.8392 36.6699 69.8407 36.5278 69.8809 36.3885C69.8828 36.3824 69.886 36.3768 69.8904 36.372C69.8947 36.3672 69.9001 36.3633 69.9061 36.3607C70.0629 36.2947 70.2974 36.2582 70.2965 36.042C70.2928 35.1888 70.2936 34.3263 70.2991 33.4546C70.2994 33.3874 70.2673 33.3411 70.2027 33.3156L69.9534 33.217Z" fill="#889494"/>
<path d="M74.9158 34.4562C74.9081 34.4527 74.9016 34.4471 74.8971 34.44C74.8925 34.4329 74.8901 34.4247 74.8901 34.4163V33.1469C74.8901 33.1355 74.8947 33.1245 74.9028 33.1163C74.911 33.1082 74.922 33.1036 74.9336 33.1035C75.1933 33.1017 75.813 33.0192 75.869 33.3983C75.9026 33.6247 75.8162 33.7864 75.6097 33.8834C75.6041 33.886 75.5992 33.8898 75.5952 33.8945C75.5912 33.8992 75.5882 33.9047 75.5865 33.9106C75.5848 33.9165 75.5843 33.9227 75.5852 33.9288C75.586 33.9349 75.5882 33.9408 75.5915 33.946L75.8833 34.4041C75.8871 34.4101 75.8893 34.4168 75.89 34.4238C75.8906 34.4308 75.8895 34.4378 75.8869 34.4443C75.8842 34.4507 75.8801 34.4565 75.8748 34.461C75.8695 34.4655 75.8632 34.4686 75.8564 34.4701C75.817 34.4788 75.7792 34.4761 75.7431 34.4619C75.7124 34.45 75.6828 34.4226 75.6545 34.3798C75.5107 34.1614 75.4113 33.8843 75.1993 33.8852C75.1255 33.8855 75.088 33.9227 75.0869 33.9968C75.0851 34.1045 75.0812 34.2237 75.0751 34.3546C75.0704 34.4627 75.0265 34.5057 74.9158 34.4562ZM75.1277 33.7136C75.2626 33.7449 75.3932 33.7408 75.5194 33.7015C75.6592 33.6576 75.7257 33.5091 75.6401 33.3901C75.5389 33.2494 75.2862 33.2772 75.1307 33.3028C75.122 33.3042 75.1138 33.3083 75.1075 33.3144C75.1011 33.3205 75.0968 33.3285 75.0951 33.3371C75.0725 33.4515 75.0724 33.5657 75.0947 33.6797C75.0964 33.6879 75.1004 33.6954 75.1062 33.7014C75.1121 33.7074 75.1195 33.7117 75.1277 33.7136Z" fill="#889494"/>
</g>
<defs>
<clipPath id="clip0_1155_5977">
<rect width="106.788" height="37" fill="white" transform="translate(0.303223)"/>
</clipPath>
</defs>
</svg>
