<svg width="100%" viewBox="0 0 112 20" fill="none"
                        xmlns="http://www.w3.org/2000/svg">
                        <path fill-rule="evenodd" clip-rule="evenodd"
                            d="M8.61939 14.78L3.67377 9.8111C2.83341 8.96678 1.47091 8.96678 0.630274 9.8111C-0.210091 10.6554 -0.210091 12.0243 0.630274 12.8689L7.09764 19.3668C7.93801 20.2111 9.30078 20.2111 10.1411 19.3668L16.2284 13.2506L13.1852 10.1927L8.61939 14.78Z"
                            fill="#16B8A2"></path>
                        <path fill-rule="evenodd" clip-rule="evenodd"
                            d="M27.2608 5.2251L17.7507 14.78L8.23957 5.22402C7.39894 4.37943 6.03644 4.37943 5.19607 5.22402C4.3557 6.06835 4.3557 7.43727 5.19607 8.28186L16.229 19.3667C17.0693 20.2111 18.4318 20.2111 19.2725 19.3667L30.3043 8.28294C31.1446 7.43835 31.1446 6.06943 30.3043 5.2251C29.4636 4.38078 28.1011 4.38078 27.2608 5.2251Z"
                            fill="#FFB41F"></path>
                        <path fill-rule="evenodd" clip-rule="evenodd"
                            d="M34.8697 12.87L28.4034 19.3667C27.563 20.211 26.2005 20.211 25.3602 19.3667L9.7615 3.69455C8.92113 2.85023 8.92113 1.48131 9.7615 0.636986C10.6021 -0.207609 11.9646 -0.207609 12.805 0.636986L26.8817 14.78L31.8262 9.81212C32.6668 8.9678 34.0293 8.9678 34.8697 9.81212C35.7101 10.6567 35.7101 12.0256 34.8697 12.87Z"
                            fill="#F56358"></path>
                        <path fill-rule="evenodd" clip-rule="evenodd"
                            d="M25.7386 0.638004C24.8982 -0.20632 23.5357 -0.20632 22.6951 0.638004L13.185 10.1929L16.2285 13.2507L25.7386 3.69584C26.5789 2.85125 26.5789 1.48233 25.7386 0.638004Z"
                            fill="#16B8A2"></path>
                        <path fill-rule="evenodd" clip-rule="evenodd"
                            d="M46.6669 2.08545H44V17.7864H53.7717V15.4152H46.6669V2.08545ZM59.5435 6.80641C61.165 6.80641 62.2531 7.46863 62.8505 8.28037L62.9786 7.02003H65.2828V17.7864H62.9786L62.8505 16.526C62.2531 17.3378 61.165 18 59.5435 18C56.6206 18 54.6364 15.6288 54.6364 12.4032C54.6364 9.15621 56.6206 6.80641 59.5435 6.80641ZM60.0983 9.07076C58.4341 9.07076 57.2393 10.3738 57.2393 12.4032C57.2393 14.4326 58.4341 15.7356 60.0983 15.7356C61.3784 15.7356 62.1465 15.0521 62.7225 14.1335V10.6729C62.1465 9.75434 61.3784 9.07076 60.0983 9.07076ZM71.7374 3.40988H69.1771V7.02003H67.1503V9.19893H69.1771V13.984C69.1771 16.5901 70.7346 18 73.1882 18C74.255 18 75.0444 17.7009 75.5778 17.3591L74.8951 15.3511C74.575 15.5434 74.1056 15.6929 73.4229 15.6929C72.4201 15.6929 71.7374 15.0521 71.7374 13.9626V9.19893H74.9804V7.02003H71.7374V3.40988ZM80.5603 3.40988H78V7.02003H75.9731V9.19893H78V13.984C78 16.5901 79.5575 18 82.0111 18C83.0778 18 83.8673 17.7009 84.4006 17.3591L83.7179 15.3511C83.3979 15.5434 82.9285 15.6929 82.2458 15.6929C81.243 15.6929 80.5603 15.0521 80.5603 13.9626V9.19893H83.8033V7.02003H80.5603V3.40988ZM88.679 7.02003H86.1188V17.7864H88.679V7.02003ZM87.3989 2C86.5028 2 85.8201 2.66222 85.8201 3.58077C85.8201 4.49933 86.5028 5.16155 87.3989 5.16155C88.3163 5.16155 88.9991 4.49933 88.9991 3.58077C88.9991 2.66222 88.3163 2 87.3989 2ZM96.4138 6.80641C93.1068 6.80641 90.9092 9.15621 90.9092 12.4032C90.9092 15.6288 93.1281 18 96.4351 18C98.3767 18 99.8488 17.1242 100.809 15.6288L98.974 14.1976C98.462 15.0521 97.6299 15.757 96.4565 15.757C94.5576 15.757 93.5122 14.283 93.5122 12.4032C93.5122 10.502 94.5149 9.0494 96.4351 9.0494C97.6299 9.0494 98.4193 9.73298 98.91 10.5875L100.766 9.17757C99.8061 7.68224 98.3767 6.80641 96.4138 6.80641ZM107.071 6.80641C110.378 6.80641 112 9.28438 112 12.2964V13.1936H104.405C104.469 14.9025 105.493 15.8425 107.285 15.8425C108.544 15.8425 109.461 15.2871 109.952 14.6035L111.723 16.0561C110.656 17.3378 109.248 18 107.264 18C103.935 18 101.802 15.6502 101.802 12.4246C101.802 9.17757 103.978 6.80641 107.071 6.80641ZM107.029 8.85714C105.514 8.85714 104.49 9.86115 104.405 11.3565H109.482C109.418 9.88251 108.565 8.85714 107.029 8.85714Z"
                            fill="currentcolor"></path>
                    </svg>