<svg width="144" height="32" viewBox="0 0 144 32" fill="none" xmlns="http://www.w3.org/2000/svg">
<path d="M35.0792 23.4419C35.0162 23.7858 34.8561 24.1047 34.6177 24.3612L27.2342 31.7158C27.2039 31.7761 27.162 31.83 27.1108 31.8742C27.0596 31.9184 27.0002 31.9521 26.9359 31.9735C26.8716 31.9948 26.8038 32.0034 26.7362 31.9986C26.6686 31.9938 26.6026 31.9758 26.542 31.9456C26.4814 31.9154 26.4274 31.8736 26.383 31.8227C26.3386 31.7717 26.3047 31.7125 26.2833 31.6485C26.2619 31.5844 26.2533 31.5168 26.2581 31.4495C26.2629 31.3822 26.281 31.3165 26.3113 31.2561V15.1681L35.0792 6.43457V23.4419Z" fill="#889494"/>
<path opacity="0.75" d="M29.0806 0.459658C29.0806 0.337749 29.032 0.220833 28.9455 0.134631C28.8589 0.0484282 28.7415 0 28.6192 0C28.4968 0 28.3794 0.0484282 28.2928 0.134631C28.2063 0.220833 28.1577 0.337749 28.1577 0.459658L17.5439 11.4915V23.9022L26.3118 15.1687L35.0797 6.43522L29.0806 0.459658Z" fill="#889494"/>
<path opacity="0.75" d="M0.0078125 23.4419C0.0707693 23.7858 0.230847 24.1047 0.46928 24.3612L7.85275 31.7158C7.91395 31.8377 8.02125 31.9304 8.15107 31.9735C8.28088 32.0166 8.42256 32.0066 8.54495 31.9456C8.66734 31.8847 8.76041 31.7778 8.80368 31.6485C8.84695 31.5192 8.83688 31.378 8.77569 31.2561V15.1681L0.0078125 6.43457V23.4419Z" fill="#889494"/>
<path d="M6.92982 0.459658C6.92982 0.337749 6.8812 0.220833 6.79466 0.134631C6.70812 0.0484282 6.59074 0 6.46835 0C6.34596 0 6.22859 0.0484282 6.14205 0.134631C6.0555 0.220833 6.00688 0.337749 6.00688 0.459658L0.0078125 6.43522L8.77569 15.1687L17.5436 23.9022V11.4915L6.92982 0.459658Z" fill="#889494"/>
<path d="M46.1548 23.4425V7.35447H50.308V9.1931C50.7599 8.39577 51.4406 7.75104 52.2627 7.34157C53.0849 6.93209 54.0111 6.77652 54.9227 6.89481C55.7948 6.95921 56.6354 7.24697 57.3631 7.73017C58.0908 8.21337 58.6807 8.87563 59.0759 9.65276C60.9217 7.81413 62.3061 6.89481 64.152 6.89481C67.8437 6.89481 70.1511 8.73344 70.1511 12.8704V23.4425H65.5364V14.709C65.5364 12.4107 65.0749 11.4914 63.2291 11.4914C61.3832 11.4914 60.4603 12.4107 60.4603 14.709V23.4425H55.3841V14.709C55.3841 12.4107 54.9227 11.4914 53.5383 11.4914C52.1539 11.4914 50.7695 12.4107 50.7695 14.709V23.4425H46.1548ZM75.6887 9.1931C76.9112 8.04761 78.438 7.27569 80.0879 6.96901C81.7378 6.66233 83.4414 6.83379 84.9963 7.46301C86.5513 8.09223 87.8923 9.15279 88.86 10.5187C89.8277 11.8846 90.3815 13.4985 90.4556 15.1687C90.4888 16.2674 90.3019 17.3618 89.9057 18.3877C89.5096 19.4137 88.9121 20.3508 88.1483 21.1442C87.3393 22.0464 86.3415 22.7609 85.2253 23.2374C84.1091 23.7139 82.9015 23.9408 81.6878 23.9022C80.5466 23.9047 79.4186 23.6593 78.3825 23.183C77.3464 22.7066 76.4271 22.0109 75.6887 21.1442C74.9249 20.3508 74.3274 19.4137 73.9312 18.3877C73.5351 17.3618 73.3481 16.2674 73.3813 15.1687C73.3481 14.0699 73.5351 12.9756 73.9312 11.9496C74.3274 10.9236 74.9249 9.98651 75.6887 9.1931ZM81.6878 19.3056C82.7892 19.3056 83.8456 18.8697 84.6245 18.0939C85.4034 17.3181 85.841 16.2658 85.841 15.1687C85.841 14.1324 85.4277 13.1386 84.6921 12.4059C83.9565 11.6732 82.9588 11.2616 81.9185 11.2616C80.8782 11.2616 79.8805 11.6732 79.1449 12.4059C78.4093 13.1386 77.996 14.1324 77.996 15.1687C77.9897 16.1907 78.3633 17.1788 79.045 17.9427C79.7267 18.7066 80.6681 19.192 81.6878 19.3056V19.3056ZM93.6859 23.4425V7.35447H98.3006V9.1931C99.2235 7.81413 100.608 6.89481 102.915 6.89481C106.146 6.89481 108.453 9.1931 108.453 12.8704V23.4425H103.838V14.709C103.838 12.4107 103.377 11.4914 101.531 11.4914C99.685 11.4914 98.3006 12.4107 98.3006 14.709V23.4425H93.6859ZM128.757 9.1931C129.98 8.04761 131.507 7.27569 133.157 6.96901C134.807 6.66233 136.51 6.83379 138.065 7.46301C139.62 8.09223 140.961 9.15279 141.929 10.5187C142.896 11.8846 143.45 13.4985 143.524 15.1687C143.558 16.2674 143.371 17.3618 142.974 18.3877C142.578 19.4137 141.981 20.3508 141.217 21.1442C140.46 21.9883 139.536 22.6685 138.505 23.1429C137.473 23.6173 136.354 23.8757 135.218 23.9022C134 23.9746 132.782 23.763 131.66 23.2842C130.539 22.8055 129.545 22.0727 128.757 21.1442C127.994 20.3508 127.396 19.4137 127 18.3877C126.604 17.3618 126.417 16.2674 126.45 15.1687C126.417 14.0699 126.604 12.9756 127 11.9496C127.396 10.9236 127.994 9.98651 128.757 9.1931V9.1931ZM135.218 19.3056C136.238 19.192 137.179 18.7066 137.861 17.9427C138.542 17.1788 138.916 16.1907 138.91 15.1687C138.91 14.1324 138.496 13.1386 137.761 12.4059C137.025 11.6732 136.028 11.2616 134.987 11.2616C133.947 11.2616 132.949 11.6732 132.214 12.4059C131.478 13.1386 131.065 14.1324 131.065 15.1687C131.065 16.2658 131.502 17.3181 132.281 18.0939C133.06 18.8697 134.116 19.3056 135.218 19.3056ZM112.145 23.4425V20.2249L118.605 11.4914H112.145V7.35447H124.143V11.0317L118.144 19.3056H124.143V23.4425H112.145Z" fill="#889494"/>
</svg>
