<svg width="81" height="22" viewBox="0 0 81 22" fill="none" xmlns="http://www.w3.org/2000/svg">
<path fill-rule="evenodd" clip-rule="evenodd" d="M8.16688 0.281069C6.48437 0.755671 5.16379 1.56549 4.17192 2.73103L3.35094 3.69567V2.04147V0.387278H1.86199H0.373047V10.9852V21.5831H1.84642H3.32002L3.39263 14.8442C3.4625 8.37672 3.48678 8.05787 3.99508 6.92873C4.98168 4.73634 6.99428 3.32083 9.5539 3.01879C11.3372 2.80821 12.6537 3.23213 13.8006 4.38569C15.2763 5.86986 15.342 6.27304 15.4341 14.3834L15.5156 21.5831H16.9927H18.4695V14.4894C18.4695 7.03194 18.3442 5.84889 17.3477 3.89381C16.7128 2.64809 15.3182 1.32496 13.9825 0.70153C12.4427 -0.0175159 9.88169 -0.202749 8.16688 0.281069ZM29.5589 0.253422C25.5097 1.18304 22.3284 4.23317 21.4611 8.01663C21.0644 9.74731 21.1681 12.847 21.6785 14.509C22.7057 17.8536 25.1851 20.3789 28.5061 21.4631C29.8773 21.9107 29.5995 22.063 31.044 20.0706L31.7229 19.1343L30.4138 18.8622C27.7367 18.3061 25.3768 16.2217 24.5661 13.6969C24.031 12.0305 24.0851 9.45794 24.6896 7.83324C25.3553 6.04334 27.063 4.32878 28.8992 3.60651C30.9024 2.81858 33.6819 2.83954 35.4481 3.65581C36.1561 3.9832 37.1418 4.62022 37.6384 5.07156C40.7116 7.86388 40.9134 13.302 38.0615 16.4768C37.082 17.5672 34.9274 18.7263 33.4723 18.9458L32.4647 19.0979L33.4181 20.398C33.9424 21.1131 34.3946 21.7349 34.4232 21.7796C34.5801 22.0255 37.618 20.7401 38.664 19.9854C44.6289 15.6803 44.5455 5.92216 38.5091 1.89218C36.0562 0.254804 32.4379 -0.407796 29.5589 0.253422ZM71.5553 0.162649C69.3704 0.716044 67.5821 2.09999 66.8827 3.77815C66.4649 4.78104 66.491 7.34435 66.9297 8.40069C67.7452 10.3641 69.0502 11.167 73.0373 12.1588C75.9685 12.8878 76.9056 13.373 77.4581 14.4477C78.8742 17.2023 75.8583 19.7711 72.0592 19.0465C70.54 18.7567 69.3949 17.889 68.8266 16.597L68.385 15.593H67.027H65.6691L65.8091 16.3417C66.1953 18.41 67.8702 20.504 69.8093 21.343C73.265 22.8383 78.0033 21.6806 79.8393 18.8926C81.3333 16.6242 80.9659 13.2559 79.022 11.4008C78.1117 10.532 76.7256 9.97171 73.6982 9.24852C71.5498 8.73521 70.9443 8.49307 70.2814 7.88185C69.5917 7.24643 69.4755 6.99185 69.4755 6.11753C69.4755 4.81813 70.0102 3.99564 71.2467 3.39363C73.3864 2.35181 76.2028 3.12085 76.9006 4.93747C77.0786 5.40032 77.257 5.45585 78.5703 5.45585H80.0407L79.8613 4.65617C79.4439 2.79416 78.1408 1.25723 76.3371 0.499248C75.3099 0.0677282 72.6651 -0.118427 71.5553 0.162649ZM45.2733 7.58695C45.2763 15.3997 45.3672 16.1673 46.5503 18.3537C47.3205 19.7769 48.155 20.5291 49.8519 21.3297C50.9308 21.8386 51.4245 21.9236 53.2879 21.9218C55.1993 21.9199 55.6398 21.8388 56.9072 21.2539C57.8556 20.8166 58.7001 20.1971 59.3697 19.4481L60.3891 18.3079V19.9455V21.5831H61.878H63.367V10.9852V0.387278H61.8961H60.4253L60.335 7.12617C60.2333 14.7124 60.124 15.3234 58.5833 16.92C57.4274 18.1181 55.8455 18.8228 53.9548 18.9822C52.5803 19.0981 52.2487 19.0419 51.1801 18.5116C50.4528 18.1505 49.7454 17.5799 49.4151 17.0873C48.3852 15.552 48.2484 14.3844 48.2484 7.13354V0.387278H46.7595H45.2705L45.2733 7.58695Z" fill="#889494"/>
</svg>
