<svg width="164" height="32" viewBox="0 0 164 32" fill="none" xmlns="http://www.w3.org/2000/svg">
<path d="M149.658 25.1052L149.446 25.1762C148.078 25.6309 146.054 26.331 144.238 27.1659C144.141 27.2116 144.077 27.3391 144.077 27.3391C144.043 27.4168 144.001 27.5132 143.953 27.622L143.946 27.636C143.743 28.0992 143.462 28.796 143.342 29.0796L143.248 29.3029C143.234 29.3384 143.242 29.3791 143.271 29.4059C143.287 29.4219 143.308 29.4309 143.333 29.4318C143.346 29.4318 143.361 29.4292 143.374 29.4222L143.593 29.318C144.09 29.0816 144.72 28.723 145.379 28.4095L145.402 28.3987C146.657 27.8037 148.073 27.1318 148.926 26.7255C148.926 26.7249 149.063 26.6518 149.132 26.5147L149.77 25.2344C149.787 25.201 149.782 25.1605 149.759 25.132C149.733 25.104 149.693 25.0935 149.658 25.1052V25.1052ZM144.558 23.1208C144.646 22.9458 145.061 22.1494 145.155 21.9712L145.172 21.9406C147.942 16.714 151.319 11.7845 155.206 7.28873L155.314 7.16472C155.33 7.14556 155.34 7.12205 155.343 7.09716C155.345 7.07228 155.34 7.04715 155.329 7.02499C155.303 6.97958 155.252 6.95484 155.203 6.96153L155.04 6.98366C152.489 7.33501 149.908 7.82173 147.365 8.42955C147.113 8.49999 146.949 8.66447 146.914 8.7026C145.011 10.9819 143.208 13.3814 141.555 15.8398C141.472 15.9641 141.463 16.261 141.463 16.261C141.463 16.261 141.88 19.4622 142.486 21.8213C140.983 26.1444 139.641 31.8418 139.641 31.8418C139.636 31.86 139.635 31.8792 139.638 31.8978C139.641 31.9165 139.649 31.9341 139.66 31.9495C139.682 31.9807 139.719 31.9987 139.758 31.9999H140.613C140.667 32.0008 140.715 31.9685 140.734 31.9187L140.792 31.7586C141.665 29.3765 142.662 27.0238 143.762 24.732C144.018 24.1981 144.558 23.1208 144.558 23.1208V23.1208Z" fill="#889494"/>
<path d="M156.461 8.22228L156.46 8.05926C156.458 8.00803 156.426 7.96203 156.379 7.94486C156.331 7.92681 156.276 7.94049 156.243 7.97979L156.136 8.10322C151.604 13.345 147.795 19.1633 144.814 25.3957L144.744 25.5413C144.722 25.5872 144.731 25.6428 144.765 25.6798C144.789 25.7043 144.82 25.7177 144.854 25.718C144.869 25.7185 144.887 25.7153 144.903 25.7089L145.052 25.6469C147.598 24.5923 150.198 23.6785 152.781 22.9321C152.935 22.8873 153.066 22.7793 153.139 22.6364C154.272 20.4295 156.9 16.1574 156.9 16.1574C156.968 16.061 156.951 15.9184 156.951 15.9184C156.951 15.9184 156.49 10.8081 156.461 8.22228V8.22228Z" fill="#889494"/>
<path d="M162.321 0.853387C161.678 0.295349 160.744 0.0330685 159.294 0.00192081C157.978 -0.0263159 156.414 0.256924 154.642 0.841161C154.376 0.934313 154.166 1.08132 153.976 1.26762C152.163 2.97091 150.424 4.75258 148.766 6.60756L148.638 6.74874C148.603 6.78862 148.598 6.84684 148.624 6.89283C148.65 6.93941 148.705 6.96328 148.757 6.95164L148.943 6.91234C151.613 6.34149 154.309 5.90513 156.953 5.61578C157.127 5.59657 157.307 5.65479 157.437 5.77326C157.567 5.89291 157.641 6.0632 157.638 6.24048C157.594 8.86503 157.689 11.5027 157.923 14.081L157.938 14.2492C157.943 14.3007 157.979 14.3435 158.031 14.3572C158.039 14.3598 158.048 14.3616 158.06 14.3619C158.099 14.3625 158.14 14.3435 158.164 14.3092L158.261 14.1709C159.751 12.045 161.373 9.97849 163.078 8.02405C163.269 7.8066 163.318 7.66832 163.354 7.47096C163.891 4.0354 163.062 1.49614 162.321 0.853387ZM127.366 3.11989H130.189V24.3702H127.599V22.8856H127.54C126.551 24.0208 124.746 24.8068 123.174 24.8068C119.098 24.8068 116.479 21.6047 116.479 16.656C116.479 11.9111 119.244 8.50524 123.145 8.50524C124.688 8.50524 126.289 9.23298 127.307 10.4265H127.366V3.11989ZM127.366 14.7348C127.366 12.668 125.736 11.096 123.611 11.096C120.845 11.096 119.302 13.1046 119.302 16.656C119.302 20.2366 120.845 22.2451 123.611 22.2451C125.736 22.2451 127.366 20.7896 127.366 18.8684V14.7348ZM114.732 16.656C114.732 21.5756 111.966 24.8068 107.745 24.8068C103.466 24.8068 100.672 21.5756 100.672 16.656C100.672 11.8529 103.554 8.50524 107.745 8.50524C111.879 8.50524 114.732 11.8529 114.732 16.656ZM111.937 16.656C111.937 13.2793 110.307 11.096 107.745 11.096C105.096 11.096 103.466 13.221 103.466 16.656C103.466 20.091 105.096 22.2451 107.745 22.2451C110.307 22.2451 111.937 20.0619 111.937 16.656ZM98.9251 16.656C98.9251 21.5756 96.1597 24.8068 91.9387 24.8068C87.6595 24.8068 84.8649 21.5756 84.8649 16.656C84.8649 11.8529 87.7468 8.50524 91.9387 8.50524C96.0723 8.50524 98.9251 11.8529 98.9251 16.656ZM96.1306 16.656C96.1306 13.2793 94.5004 11.096 91.9387 11.096C89.2897 11.096 87.6595 13.221 87.6595 16.656C87.6595 20.091 89.2897 22.2451 91.9387 22.2451C94.5004 22.2451 96.1306 20.0619 96.1306 16.656ZM77.3254 8.50524C75.6079 8.50524 73.8613 9.32031 73.0462 10.4847H72.988V3.11989H70.1643V24.3702H72.988V14.6765C72.988 12.5806 74.5017 11.1251 76.6559 11.1251C78.7809 11.1251 80.0035 12.5224 80.0035 14.9385V24.3702H82.8272V14.2399C82.8272 10.7176 80.7022 8.50524 77.3254 8.50524ZM61.6933 8.50524C60.0631 8.50524 58.3165 9.2912 57.4723 10.4265H57.4141V8.94188H54.6486V24.3702H57.4723V14.6765C57.4723 12.4933 58.8987 11.1251 61.1402 11.1251C63.3526 11.1251 64.4005 12.406 64.4005 15.0841V24.3702H67.2533V14.269C67.2533 10.7176 65.0992 8.50524 61.6933 8.50524ZM48.6228 8.94188H51.4465V24.3702H48.6228V8.94188ZM48.5064 3.11989H51.563V6.11822H48.5064V3.11989ZM46.294 16.656C46.294 21.6047 43.6741 24.8068 39.5987 24.8068C38.0267 24.8068 36.2219 24.0208 35.2322 22.8856H35.174V24.3702H32.5832V3.11989H35.4068V10.4265H35.4651C36.4839 9.26209 38.1141 8.50524 39.6569 8.50524C43.5577 8.50524 46.294 11.8529 46.294 16.656ZM43.4703 16.656C43.4703 13.1046 41.9275 11.096 39.162 11.096C37.037 11.096 35.4068 12.668 35.4068 14.7348V18.8684C35.4068 20.7896 37.037 22.2451 39.162 22.2451C41.9275 22.2451 43.4703 20.2366 43.4703 16.656ZM30.3999 16.656C30.3999 21.5756 27.6344 24.8068 23.4135 24.8068C19.1343 24.8068 16.3397 21.5756 16.3397 16.656C16.3397 11.8529 19.2216 8.50524 23.4135 8.50524C27.5471 8.50524 30.3999 11.8529 30.3999 16.656ZM27.6053 16.656C27.6053 13.2793 25.9752 11.096 23.4135 11.096C20.7644 11.096 19.1343 13.221 19.1343 16.656C19.1343 20.091 20.7644 22.2451 23.4135 22.2451C25.9752 22.2451 27.6053 20.0619 27.6053 16.656ZM11.301 15.1601C13.4564 15.9551 14.4476 17.8862 14.4476 21.139V24.3702H11.6239V21.139C11.6239 17.5875 10.4595 16.3067 7.25735 16.3067H3.09461V24.3702H0.183594V3.99319H8.15977C12.3516 3.99319 15.0298 6.29288 15.0298 9.90251C15.0298 12.5637 13.5105 14.386 11.301 15.1601ZM12.0896 10.1936C12.0896 7.83571 10.6632 6.6422 7.89778 6.6422H3.09461V13.7159H7.92689C10.6341 13.7159 12.0896 12.4642 12.0896 10.1936Z" fill="#889494"/>
<path d="M159.294 0.00192081C160.744 0.0330685 161.678 0.295349 162.321 0.853388C163.062 1.49614 163.891 4.0354 163.354 7.47096C163.318 7.66832 163.269 7.8066 163.078 8.02405C161.373 9.97849 159.751 12.045 158.261 14.1709L158.164 14.3092C158.14 14.3435 158.099 14.3625 158.06 14.3619C158.048 14.3616 158.039 14.3598 158.031 14.3572C157.979 14.3435 157.943 14.3007 157.938 14.2492L157.923 14.081C157.689 11.5027 157.594 8.86504 157.638 6.24048C157.641 6.0632 157.567 5.89291 157.437 5.77326C157.307 5.65479 157.127 5.59657 156.953 5.61578C154.309 5.90513 151.613 6.34149 148.943 6.91234L148.757 6.95164C148.705 6.96328 148.65 6.93941 148.624 6.89283C148.598 6.84684 148.603 6.78862 148.638 6.74874L148.766 6.60756C150.424 4.75258 152.163 2.97091 153.976 1.26762C154.166 1.08132 154.376 0.934313 154.642 0.841161C156.414 0.256924 157.978 -0.0263159 159.294 0.00192081Z" fill="#889494"/>
</svg>
