<svg width="101" height="33" viewBox="0 0 101 33" fill="none" xmlns="http://www.w3.org/2000/svg">
<path fill-rule="evenodd" clip-rule="evenodd" d="M37.5737 5.4734C37.918 6.06373 37.9242 6.78934 37.5921 7.38581C36.4176 9.21828 35.8888 11.389 36.0917 13.5535V13.5473C36.4976 19.6166 33.1155 25.9811 26.9601 29.5661C20.8047 33.1511 13.604 32.942 8.53705 29.5845V29.5907C6.75992 28.3424 4.60769 27.7274 2.43702 27.8443C1.75445 27.8381 1.12723 27.4692 0.789026 26.8788C0.450819 26.2885 0.43852 25.5629 0.770578 24.9664C1.94508 23.134 2.47391 20.9633 2.27099 18.7988V18.8049C1.87129 12.7356 5.25336 6.37119 11.4087 2.79234C17.5641 -0.792657 24.7648 -0.583582 29.8318 2.77389C31.6151 4.02219 33.7612 4.63711 35.9318 4.52027C36.6021 4.52642 37.2293 4.88923 37.5737 5.4734Z" fill="#889494"/>
<path fill-rule="evenodd" clip-rule="evenodd" d="M65.4483 29.2033V16.9725H74.0941V19.7028H68.8549V21.8058H73.3992V24.1548H68.8549V26.4608H74.2724V29.2033H65.4483ZM95.106 29.2033V24.0072L94.9707 24.0564C93.6486 24.5115 92.2712 24.7697 90.8753 24.8251H90.7708V29.2033H87.2165V16.9725H90.7708V22.0948H90.8753C90.9614 22.0948 92.7139 22.0825 95.0383 21.3139L95.1121 21.2893V16.9725H98.6664V29.2033H95.106ZM43.7354 29.191V17.0033H52.332V19.9795H47.2773V22.3838H51.2927V24.9665H47.2773V29.191H43.7354ZM56.7102 15.4106V3.17982H65.5835V5.91008H60.1107V8.00696H64.655V10.356H60.1107V12.6619H65.5282V15.4106H56.7102ZM76.6091 15.4045V3.17367H80.1695V12.416H85.0212V15.4045H76.6091ZM66.9548 15.4045V3.17367H70.5152V12.416H75.367V15.4045H66.9548ZM92.1789 15.7242C90.8814 15.7242 89.8176 15.4783 88.7354 14.9248C87.733 14.4267 86.8906 13.6458 86.3187 12.6804C85.7468 11.7149 85.464 10.5773 85.464 9.29215C85.464 8.00696 85.7468 6.86935 86.3187 5.90393C86.8906 4.9385 87.7269 4.15755 88.7292 3.65946C89.8115 3.10603 90.8753 2.86621 92.1728 2.86621C93.4703 2.86621 94.5341 3.11218 95.6163 3.65946C96.6187 4.15755 97.4611 4.9385 98.033 5.90393C98.6049 6.86935 98.8939 8.00696 98.8939 9.29215C98.8939 10.5773 98.6049 11.7149 98.033 12.6804C97.4611 13.6458 96.6187 14.4267 95.6163 14.9248C94.5402 15.4783 93.4764 15.7242 92.1789 15.7242ZM92.1789 5.86088C91.5948 5.84858 91.0167 5.99616 90.5125 6.28518C90.0144 6.56189 89.6086 6.98619 89.3441 7.49043C89.0736 8.00696 88.9321 8.61573 88.9321 9.30445C88.9321 9.99316 89.0674 10.6019 89.3441 11.1185C89.6086 11.6227 90.0144 12.0409 90.5125 12.3176C91.5579 12.8648 92.8 12.8648 93.8454 12.3176C94.3496 12.0409 94.7555 11.6289 95.026 11.1246C95.3027 10.6081 95.4442 9.99931 95.4442 9.3106C95.4442 8.62803 95.3027 8.01311 95.026 7.49657C94.7555 6.99234 94.3496 6.57419 93.8515 6.29133C93.335 5.99002 92.7631 5.84858 92.1789 5.86088ZM51.631 15.4045V10.2084L51.4957 10.2576C50.1736 10.7065 48.7962 10.9709 47.4003 11.0262H47.2957V15.4045H43.7415V3.17367H47.2957V8.29597H47.4003C47.4864 8.29597 49.2389 8.28367 51.5633 7.51502L51.6371 7.49043V3.16752H55.1914V15.3983H51.631V15.4045ZM80.6368 29.4309C80.5139 29.4309 80.3909 29.4309 80.2679 29.4247C79.3394 29.4001 78.4293 29.2095 77.5745 28.8528C76.7813 28.5146 76.1295 28.0411 75.6437 27.457C75.4223 27.1925 75.244 26.9035 75.1025 26.5961L77.8881 25.1202C77.9496 25.4277 78.0849 25.7229 78.2755 25.9688C78.5215 26.2763 78.8351 26.5161 79.1979 26.6637C79.6222 26.842 80.0773 26.9404 80.5384 26.9466H80.7106C81.0181 26.9527 81.3256 26.9097 81.6269 26.8297C81.9036 26.7559 82.1618 26.6207 82.3771 26.43C82.5615 26.264 82.6722 26.0303 82.6845 25.7844C82.7091 25.4954 82.58 25.2186 82.3463 25.0465C82.1065 24.8681 81.8359 24.739 81.5531 24.6652C81.2518 24.5791 80.7783 24.4684 80.1326 24.3393C79.1426 24.1548 78.3186 23.9457 77.6852 23.7244C77.058 23.503 76.4984 23.1156 76.068 22.6052C75.6191 22.0887 75.41 21.3569 75.4469 20.4284C75.4776 19.6228 75.7113 18.9095 76.1479 18.3131C76.5845 17.7166 77.1933 17.2615 77.9496 16.9602C78.6875 16.6835 79.4746 16.5421 80.2679 16.5544C80.3663 16.5544 80.4708 16.5544 80.5753 16.5605C81.3747 16.579 82.168 16.745 82.9059 17.0525C83.5516 17.323 84.1296 17.7412 84.5969 18.27C84.8183 18.5283 85.0028 18.8173 85.1442 19.1309L82.5923 20.4837C82.5185 20.0902 82.3033 19.7397 81.9897 19.4999C81.633 19.2231 81.178 19.0694 80.6245 19.0448H80.4954C80.2494 19.0448 79.9973 19.0756 79.7636 19.1432C79.53 19.2047 79.3148 19.3338 79.1487 19.506C78.995 19.672 78.9089 19.8873 78.9028 20.1148C78.8843 20.3976 79.0073 20.6682 79.2348 20.8342C79.4623 21.0064 79.7206 21.1294 79.9973 21.2032C80.2802 21.277 80.7537 21.3815 81.4116 21.5107C82.2418 21.6521 83.0596 21.8489 83.859 22.101C84.5047 22.3162 85.0766 22.7036 85.5193 23.2201C85.9744 23.7428 86.1834 24.4807 86.1527 25.4216C86.1342 26.2148 85.8575 26.9773 85.3594 27.5922C84.8614 28.2072 84.1665 28.6745 83.2995 28.9943C82.4878 29.2894 81.6023 29.4309 80.6368 29.4309ZM63.9478 29.3632C63.253 29.3694 62.5643 29.2648 61.9063 29.0557C61.5373 28.9328 61.1868 28.779 60.8425 28.5946C60.5043 28.4039 60.1845 28.1887 59.8894 27.9427C59.3175 27.4631 58.8194 26.8974 58.4258 26.264C58.2352 25.9627 58.063 25.6429 57.9093 25.317C57.8663 25.2186 57.8232 25.1202 57.7863 25.028L57.7617 24.9665H57.073V29.2402H53.5188V17.0033H59.0654C60.0554 17.0033 60.9347 17.1755 61.6972 17.5075C62.4597 17.8396 63.0378 18.3131 63.4498 18.9218C63.8618 19.5429 64.077 20.2747 64.0647 21.0187C64.0708 21.4984 63.9724 21.978 63.7695 22.4146C63.5727 22.8327 63.2714 23.2017 62.9086 23.4846C62.4413 23.8289 61.9248 24.1056 61.3775 24.2963L61.2668 24.3331L61.359 24.5176C61.5435 24.862 61.7772 25.1817 62.06 25.4523C62.1892 25.5814 62.3367 25.6921 62.4843 25.7967C62.6381 25.895 62.7979 25.9811 62.964 26.0488C63.296 26.1779 63.6527 26.2579 64.0093 26.2825V29.3694H63.9478V29.3632ZM57.073 22.5929H58.6288C58.9424 22.5929 59.256 22.5314 59.545 22.4023C59.8217 22.2793 60.0615 22.0948 60.246 21.8612C60.4243 21.6275 60.5227 21.3446 60.5166 21.0495C60.5227 20.7482 60.4243 20.4591 60.246 20.2193C60.0615 19.9795 59.8217 19.795 59.545 19.6782C59.256 19.549 58.9424 19.4876 58.6288 19.4876H57.073V22.5929Z" fill="#889494"/>
</svg>
