<svg width="122" height="30" viewBox="0 0 122 30" fill="none" xmlns="http://www.w3.org/2000/svg">
<path d="M38.3965 23.7226L39.8646 20.2912C41.4721 21.4816 43.5687 22.1117 45.6658 22.1117C47.2036 22.1117 48.182 21.5167 48.182 20.6065C48.1469 18.0853 38.9208 20.0461 38.8506 13.7075C38.8155 10.4861 41.6816 8.00003 45.736 8.00003C48.1469 8.00003 50.5589 8.59549 52.2711 9.96135L50.8992 13.466C49.3238 12.453 47.3781 11.7467 45.526 11.7467C44.2679 11.7467 43.4289 12.3417 43.4289 13.1126C43.4639 15.5987 52.7608 14.2328 52.8655 20.2912C52.8655 23.5828 50.0692 25.894 46.0849 25.894C43.1497 25.894 40.4586 25.1937 38.396 23.7226M96.8541 19.0487C96.4835 19.7071 95.9444 20.2551 95.2922 20.6365C94.64 21.0179 93.898 21.2189 93.1425 21.219C90.7877 21.219 88.879 19.3063 88.879 16.947C88.879 14.5877 90.7877 12.675 93.1425 12.675C93.898 12.6751 94.64 12.8761 95.2922 13.2575C95.9444 13.6389 96.4835 14.1869 96.8541 14.8453L100.936 12.5798C99.4068 9.84757 96.4907 8.00003 93.1425 8.00003C88.2108 8.00003 84.213 12.0054 84.213 16.947C84.213 21.8881 88.2108 25.894 93.1425 25.894C96.4907 25.894 99.4068 24.0464 100.936 21.3142L96.8541 19.0487ZM55.514 25.5436H60.6166V0.552246H55.5145L55.514 25.5436ZM103.512 0.552246V25.5436H108.615V18.0562L114.661 25.5436H121.183L113.494 16.6488L120.624 8.34889H114.382L108.615 15.2493V0.552246H103.512ZM76.3367 8.34989V10.3814C75.4981 8.98044 73.436 8.00003 71.2692 8.00003C66.7957 8.00003 63.2661 11.9572 63.2661 16.9295C63.2661 21.9017 66.7957 25.894 71.2692 25.894C73.436 25.894 75.4981 24.9136 76.3367 23.5126V25.5436H81.4392V8.34989H76.3367ZM76.3367 19.0832C75.6029 20.3088 74.0651 21.2185 72.3529 21.2185C69.9976 21.2185 68.0889 19.3063 68.0889 16.947C68.0889 14.5877 69.9976 12.675 72.3529 12.675C74.0651 12.675 75.6029 13.6203 76.3367 14.8804V19.0832Z" fill="#889494"/>
<path d="M11.4496 0C9.79608 0 8.45579 1.3433 8.45579 2.99987C8.45539 3.39342 8.53252 3.7832 8.68276 4.14694C8.833 4.51069 9.05342 4.84128 9.33142 5.11985C9.60943 5.39841 9.93958 5.61949 10.303 5.77046C10.6665 5.92143 11.0561 5.99934 11.4496 5.99973H14.444V2.99987C14.4447 2.205 14.1296 1.44242 13.568 0.879855C13.0065 0.317286 12.2445 0.000797243 11.4496 0M11.4496 7.99964H3.46553C1.81197 7.99964 0.47168 9.34294 0.47168 11C0.47168 12.6566 1.81197 13.9999 3.46553 13.9999H11.4501C13.1032 13.9999 14.444 12.6566 14.444 11C14.444 9.34294 13.1032 7.99964 11.4496 7.99964" fill="#889494"/>
<path d="M30.4118 11C30.4118 9.34294 29.071 7.99964 27.4174 7.99964C25.7639 7.99964 24.4236 9.34294 24.4236 11V13.9999H27.4174C28.2123 13.9991 28.9743 13.6826 29.5358 13.12C30.0973 12.5574 30.4124 11.7949 30.4118 11M22.4277 11V2.99987C22.4283 2.205 22.1132 1.44242 21.5517 0.879855C20.9902 0.317286 20.2282 0.000797243 19.4333 0C17.7797 0 16.4395 1.3433 16.4395 2.99987V10.9995C16.4395 12.6571 17.7797 14.0004 19.4333 14.0004C20.2282 13.9996 20.9902 13.6831 21.5517 13.1205C22.1132 12.558 22.4283 11.7954 22.4277 11.0005" fill="#889494"/>
<path d="M19.4333 29.9999C20.2282 29.9991 20.9902 29.6826 21.5517 29.12C22.1132 28.5574 22.4283 27.7949 22.4277 27C22.4283 26.2051 22.1132 25.4426 21.5517 24.88C20.9902 24.3174 20.2282 24.0009 19.4333 24.0001H16.4395V27C16.4395 28.6566 17.7797 29.9999 19.4333 29.9999ZM19.4333 22.0002H27.4179C29.071 22.0002 30.4118 20.6569 30.4118 18.9999C30.4124 18.205 30.0974 17.4424 29.5358 16.8799C28.9743 16.3173 28.2123 16.0008 27.4174 16H19.4333C17.7797 16 16.4395 17.3433 16.4395 18.9999C16.4391 19.3934 16.5162 19.7832 16.6664 20.1469C16.8167 20.5107 17.0371 20.8413 17.3151 21.1198C17.5931 21.3984 17.9232 21.6195 18.2867 21.7705C18.6501 21.9214 19.0398 21.9993 19.4333 21.9997" fill="#889494"/>
<path d="M0.471681 18.9999C0.471286 19.3934 0.548411 19.7832 0.698652 20.1469C0.848894 20.5107 1.06931 20.8413 1.34731 21.1198C1.62532 21.3984 1.95547 21.6195 2.31891 21.7705C2.68236 21.9214 3.07198 21.9993 3.46553 21.9997C4.2604 21.9989 5.0224 21.6824 5.58393 21.1199C6.14547 20.5573 6.46055 19.7947 6.45989 18.9999V16H3.46553C1.81197 16 0.471681 17.3433 0.471681 18.9999M8.45579 18.9999V26.9995C8.45579 28.6566 9.79608 29.9999 11.4496 29.9999C12.2445 29.9991 13.0065 29.6826 13.568 29.12C14.1296 28.5574 14.4447 27.7949 14.444 27V18.9999C14.4444 18.6063 14.3673 18.2165 14.217 17.8527C14.0667 17.4889 13.8462 17.1583 13.5682 16.8797C13.2901 16.6011 12.9599 16.3801 12.5964 16.2291C12.2329 16.0782 11.8432 16.0003 11.4496 16C9.79608 16 8.45579 17.3433 8.45579 18.9999Z" fill="#889494"/>
</svg>
